<svg xmlns="http://www.w3.org/2000/svg" xmlns:xlink="http://www.w3.org/1999/xlink" width="1080" zoomAndPan="magnify" viewBox="0 0 810 1439.999935" height="1920" preserveAspectRatio="xMidYMid meet" version="1.0"><defs><clipPath id="8e34122721"><path d="M 56 1394 L 788.25 1394 L 788.25 1440 L 56 1440 Z M 56 1394 " clip-rule="nonzero"/></clipPath></defs><g clip-path="url(#8e34122721)"><path fill="#3f424c" d="M 788.230469 1417.710938 C 788.230469 1405.371094 624.472656 1395.242188 422.402344 1394.871094 C 220.328125 1394.6875 56.570312 1404.449219 56.570312 1416.792969 C 56.570312 1429.132812 220.328125 1439.261719 422.402344 1439.632812 C 624.472656 1440 788.230469 1430.054688 788.230469 1417.710938 Z M 788.230469 1417.710938 " fill-opacity="0.098" fill-rule="nonzero"/></g><path fill="#faad69" d="M 628.523438 522.703125 C 594.449219 522.703125 587.078125 478.863281 587.078125 478.863281 C 511.003906 488.074219 363.640625 452.523438 363.640625 452.523438 C 317.035156 463.207031 165.621094 407.765625 155.855469 420.289062 C 146.09375 432.816406 36.125 409.238281 18.070312 408.683594 C 0.0195312 408.132812 1.863281 399.476562 1.863281 399.476562 C 22.125 399.476562 145.171875 384.1875 145.171875 384.1875 C 333.0625 366.6875 375.980469 382.34375 375.980469 382.34375 C 496.632812 416.421875 521.503906 375.898438 607.527344 375.898438 C 693.550781 375.898438 691.890625 436.683594 691.890625 436.683594 C 692.074219 503.363281 662.601562 522.703125 628.523438 522.703125 Z M 599.972656 805.445312 C 599.972656 805.445312 311.695312 1001.058594 369.71875 1083.582031 C 435.109375 1176.597656 620.789062 1253.59375 620.234375 1320.273438 C 620.234375 1320.273438 619.316406 1368.164062 576.949219 1387.503906 L 555.765625 1394.871094 C 555.765625 1394.871094 552.449219 1413.292969 575.660156 1411.449219 C 598.867188 1409.609375 620.421875 1426.183594 644.734375 1401.6875 C 669.050781 1377.1875 685.8125 1351.402344 711.046875 1339.058594 C 736.285156 1326.71875 746.046875 1292.089844 692.074219 1264.460938 C 638.105469 1236.832031 609.183594 1127.050781 483.925781 1068.660156 C 483.925781 1068.660156 782.519531 960.535156 782.519531 831.601562 Z M 599.972656 805.445312 " fill-opacity="1" fill-rule="nonzero"/><path fill="#ffb675" d="M 741.8125 734.527344 C 697.601562 676.507812 697.234375 581.09375 718.785156 509.808594 C 748.257812 412.183594 679.179688 348.636719 680.101562 297.984375 L 641.972656 267.222656 C 672.734375 255.617188 689.3125 221.542969 686.734375 187.097656 C 683.601562 145.101562 646.945312 113.785156 604.945312 117.101562 C 562.949219 120.234375 531.632812 156.890625 534.949219 198.703125 C 535.5 206.070312 537.160156 213.253906 539.554688 219.699219 C 546 240.144531 539.921875 242.355469 527.582031 258.75 C 527.582031 258.75 517.265625 269.25 535.5 275.144531 C 535.5 275.144531 540.84375 276.800781 537.34375 283.0625 C 537.34375 283.0625 532.1875 290.429688 540.476562 292.640625 L 545.449219 294.484375 C 545.449219 294.484375 538.632812 299.457031 542.6875 304.613281 C 542.6875 304.613281 551.894531 308.296875 551.894531 312.902344 C 552.082031 317.507812 556.5 335.742188 566.632812 332.242188 C 569.765625 331.136719 578.421875 328.558594 589.289062 324.691406 C 597.394531 338.136719 606.605469 359.136719 607.527344 383.632812 C 521.503906 383.632812 496.632812 424.15625 375.980469 390.082031 C 375.980469 390.082031 333.0625 374.425781 145.171875 391.921875 C 145.171875 391.921875 22.125 407.210938 1.863281 407.210938 C 1.863281 407.210938 0.0195312 416.054688 18.070312 416.421875 C 36.125 416.789062 146.09375 440.367188 155.855469 428.027344 C 165.621094 415.683594 317.035156 470.945312 363.640625 460.261719 C 363.640625 460.261719 475.820312 487.152344 554.84375 488.074219 C 508.792969 543.699219 505.109375 563.59375 537.160156 614.984375 C 574 673.929688 565.710938 732.871094 594.261719 818.523438 C 594.261719 818.523438 305.984375 1014.136719 364.007812 1096.65625 C 429.398438 1189.675781 615.078125 1266.671875 614.527344 1333.351562 C 614.527344 1333.351562 613.605469 1381.242188 571.238281 1400.582031 L 550.054688 1407.949219 C 550.054688 1407.949219 546.738281 1426.371094 569.949219 1424.527344 C 593.15625 1422.683594 614.710938 1439.261719 639.023438 1414.765625 C 663.339844 1390.265625 680.101562 1364.480469 705.339844 1352.136719 C 730.574219 1339.796875 740.335938 1305.167969 686.367188 1277.539062 C 632.394531 1249.910156 603.472656 1140.128906 478.214844 1081.738281 C 478.214844 1081.738281 782.703125 973.613281 782.703125 844.675781 C 783.074219 844.863281 786.019531 792.550781 741.8125 734.527344 Z M 741.8125 734.527344 " fill-opacity="1" fill-rule="nonzero"/><path fill="#33353d" d="M 630.734375 1199.253906 C 598.867188 1156.335938 558.34375 1103.472656 484.109375 1068.84375 C 484.109375 1068.84375 782.703125 960.722656 782.703125 831.785156 L 600.15625 805.445312 C 600.15625 805.445312 311.878906 1001.058594 369.902344 1083.582031 C 413.925781 1146.023438 512.109375 1201.28125 571.605469 1251.015625 C 571.605469 1251.199219 609.734375 1246.777344 630.734375 1199.253906 Z M 630.734375 1199.253906 " fill-opacity="1" fill-rule="nonzero"/><path fill="#3f424c" d="M 478.398438 1081.738281 C 478.398438 1081.738281 782.886719 973.613281 782.886719 844.675781 C 782.886719 844.675781 786.019531 792.550781 741.8125 734.527344 C 740.152344 732.316406 738.496094 730.109375 737.023438 727.714844 C 664.078125 763.445312 596.65625 766.761719 580.449219 766.945312 C 583.949219 782.972656 588.367188 800.101562 594.449219 818.335938 C 594.449219 818.335938 306.167969 1013.953125 364.191406 1096.472656 C 408.585938 1159.652344 508.609375 1215.464844 567.921875 1265.75 C 600.710938 1252.488281 617.472656 1227.621094 625.210938 1212.332031 C 593.34375 1169.414062 553 1116.550781 478.398438 1081.738281 Z M 478.398438 1081.738281 " fill-opacity="1" fill-rule="nonzero"/><path fill="#5fa8ba" d="M 718.785156 510.175781 C 718.046875 481.8125 711.234375 379.214844 648.789062 379.214844 C 648.789062 379.214844 637.550781 379.398438 622.816406 384.371094 C 693.550781 391.003906 692.074219 444.601562 692.074219 444.601562 C 692.074219 510.914062 662.601562 530.253906 628.523438 530.253906 C 594.449219 530.253906 587.078125 486.414062 587.078125 486.414062 C 577.316406 487.519531 566.449219 488.074219 555.027344 487.890625 C 508.976562 543.515625 505.292969 563.410156 537.34375 614.800781 C 548.027344 631.929688 554.84375 648.878906 560 666.558594 C 560 666.558594 646.761719 674.847656 707.734375 646.484375 C 701.285156 600.984375 706.257812 551.4375 718.785156 510.175781 Z M 718.785156 510.175781 " fill-opacity="1" fill-rule="nonzero"/><path fill="#3c2415" d="M 683.050781 319.164062 C 616.183594 302.773438 629.816406 268.144531 629.816406 268.144531 C 636.445312 267.40625 638.289062 251.566406 638.289062 251.566406 C 640.3125 240.144531 632.210938 209.753906 613.234375 220.066406 C 594.261719 230.566406 572.160156 214.175781 572.160156 214.175781 C 573.449219 217.304688 579.894531 223.015625 579.894531 223.015625 C 620.605469 248.25 623.183594 269.433594 619.5 281.40625 C 617.472656 288.40625 613.234375 292.273438 613.234375 292.273438 C 613.234375 292.273438 615.816406 286.929688 616.550781 280.484375 C 617.289062 272.011719 614.710938 261.328125 598.132812 257.644531 C 591.132812 256.171875 583.210938 253.777344 574.921875 250.644531 C 548.210938 240.515625 518.738281 221.542969 516.34375 192.4375 C 513.214844 154.308594 608.078125 81 682.128906 112.683594 C 717.128906 127.050781 740.890625 161.863281 738.496094 201.097656 C 737.023438 225.777344 725.601562 247.511719 708.101562 262.800781 C 708.285156 263.171875 683.972656 284.90625 683.050781 319.164062 Z M 683.050781 319.164062 " fill-opacity="1" fill-rule="nonzero"/></svg>