<svg xmlns="http://www.w3.org/2000/svg" xmlns:xlink="http://www.w3.org/1999/xlink" width="1920" zoomAndPan="magnify" viewBox="0 0 1440 809.999993" height="1080" preserveAspectRatio="xMidYMid meet" version="1.0"><defs><clipPath id="1db820d2d5"><path d="M 26.300781 694 L 252 694 L 252 791 L 26.300781 791 Z M 26.300781 694 " clip-rule="nonzero"/></clipPath></defs><path fill="#f5ac7f" d="M 1021.792969 118.964844 C 1000.601562 114.5625 1009.683594 151.175781 1021.519531 159.433594 C 1031.425781 166.316406 1060.324219 161.636719 1072.710938 161.085938 C 1093.628906 160.261719 1151.425781 154.480469 1151.148438 128.328125 C 1151.148438 114.011719 1139.867188 110.707031 1133.261719 99.695312 C 1124.726562 85.378906 1135.738281 78.496094 1127.753906 71.066406 C 1122.800781 66.660156 1106.011719 74.09375 1098.582031 69.414062 C 1092.25 65.285156 1078.765625 44.910156 1072.433594 40.230469 C 1062.25 32.523438 1045.1875 27.292969 1031.976562 30.046875 C 1006.378906 35.277344 1022.617188 56.472656 1030.601562 71.617188 C 1035.554688 81.800781 1043.8125 121.996094 1021.792969 118.964844 Z M 1021.792969 118.964844 " fill-opacity="1" fill-rule="nonzero"/><path fill="#f5ac7f" d="M 1014.914062 208.4375 C 1028.949219 207.886719 1024.820312 241.199219 1025.371094 253.3125 C 1047.664062 257.441406 1058.121094 252.210938 1080.417969 263.222656 C 1099.957031 272.859375 1110.691406 284.96875 1124.175781 301.488281 C 1144.820312 327.089844 1168.765625 374.167969 1201.242188 384.902344 C 1206.46875 366.183594 1174.269531 343.882812 1162.707031 331.769531 C 1145.644531 313.875 1124.726562 294.882812 1114.269531 272.308594 C 1104.085938 250.28125 1104.910156 227.433594 1105.1875 203.484375 C 1105.1875 191.921875 1109.039062 160.261719 1110.964844 147.871094 C 1113.71875 131.628906 1041.058594 152.277344 1025.371094 155.582031 C 1026.195312 173.476562 1022.34375 192.472656 1014.914062 208.4375 Z M 1014.914062 208.4375 " fill-opacity="1" fill-rule="nonzero"/><path fill="#f5ac7f" d="M 1006.929688 501.90625 C 1005.554688 521.175781 993.996094 538.792969 976.378906 547.605469 C 987.664062 568.25 1003.351562 586.695312 1019.316406 604.589844 C 1036.105469 623.308594 1042.433594 639.003906 1065.003906 650.289062 C 1100.78125 617.804688 1183.074219 569.078125 1187.203125 512.640625 C 1151.148438 516.21875 1115.921875 529.160156 1079.039062 522.550781 C 1059.222656 518.972656 1026.472656 503.28125 1006.929688 501.90625 Z M 1006.929688 501.90625 " fill-opacity="1" fill-rule="nonzero"/><g clip-path="url(#1db820d2d5)"><path fill="#f5ac7f" d="M 26.300781 782.984375 C 26.300781 796.472656 92.078125 787.9375 110.792969 787.113281 C 139.417969 785.734375 176.847656 778.027344 202.996094 770.59375 C 299.875 742.789062 224.1875 724.894531 208.773438 705.625 C 182.628906 673.414062 149.875 722.140625 125.933594 734.53125 C 99.511719 748.019531 26.300781 766.738281 26.300781 782.984375 Z M 26.300781 782.984375 " fill-opacity="1" fill-rule="nonzero"/></g><path fill="#bcb1f5" d="M 218.683594 761.507812 C 225.839844 768.117188 269.050781 757.65625 299.601562 756.828125 C 335.65625 755.726562 363.175781 750.222656 402.257812 749.945312 C 452.902344 749.394531 526.9375 759.03125 577.304688 768.941406 C 647.761719 782.707031 696.75 768.941406 769.136719 768.941406 C 846.199219 768.941406 916.382812 764.261719 982.160156 725.445312 C 1010.234375 708.925781 1017.113281 691.035156 1041.335938 669.835938 C 1063.351562 650.289062 1077.113281 650.015625 1056.195312 628.539062 C 1040.234375 612.023438 1025.097656 593.027344 1009.132812 577.058594 C 1000.050781 567.976562 979.683594 545.402344 972.527344 544.574219 C 965.648438 543.472656 941.703125 552.007812 928.765625 552.835938 C 914.179688 553.660156 891.335938 553.109375 868.21875 562.195312 C 845.648438 571.003906 826.933594 592.203125 793.628906 611.746094 C 746.566406 639.277344 691.523438 645.882812 638.128906 650.839844 C 579.503906 656.347656 511.800781 653.042969 453.453125 661.578125 C 399.230469 669.558594 344.1875 691.859375 289.417969 694.335938 C 273.179688 695.164062 267.398438 697.640625 250.882812 698.742188 C 237.125 699.566406 214.554688 696.539062 209.050781 703.695312 C 203.820312 709.753906 211.527344 755.175781 218.683594 761.507812 Z M 218.683594 761.507812 " fill-opacity="1" fill-rule="nonzero"/><path fill="#ffece2" d="M 1012.433594 250.007812 C 1093.351562 229.085938 1141.242188 328.191406 1177.019531 358.75 C 1188.855469 368.9375 1203.441406 374.441406 1207.847656 390.132812 C 1212.800781 408.304688 1205.644531 431.703125 1204.269531 449.046875 C 1203.167969 465.015625 1205.644531 510.714844 1193.535156 521.726562 C 1186.929688 527.78125 1173.992188 522 1162.160156 522.550781 C 1148.671875 523.378906 1135.1875 525.578125 1121.699219 526.679688 C 1088.949219 529.433594 1061.152344 525.855469 1029.5 519.523438 C 1002.800781 514.015625 998.125 514.566406 998.675781 488.140625 C 998.949219 473.273438 994.820312 459.507812 994.820312 444.917969 C 1038.582031 442.441406 1121.425781 443.816406 1146.46875 400.320312 C 1159.679688 377.46875 1149.5 354.894531 1136.011719 333.972656 C 1121.148438 310.574219 1110.140625 298.734375 1088.398438 280.566406 C 1071.882812 266.800781 1059.5 260.746094 1045.460938 257.992188 C 1026.195312 254.136719 1009.132812 263.496094 1006.105469 259.917969 C 1002.253906 255.238281 1008.03125 251.109375 1012.433594 250.007812 Z M 1012.433594 250.007812 " fill-opacity="1" fill-rule="nonzero"/><path fill="#393a31" d="M 1045.460938 23.4375 C 1032.800781 0.3125 962.894531 11.601562 945.554688 26.191406 C 917.484375 49.867188 907.847656 103.550781 912.253906 138.238281 C 918.308594 184.761719 952.988281 212.84375 1000.324219 212.292969 C 1020.96875 212.015625 1029.773438 200.453125 1032.25 178.429688 C 1034.179688 158.609375 1008.582031 150.074219 1012.710938 134.382812 C 1016.839844 118.964844 1036.105469 125.574219 1039.40625 104.925781 C 1042.710938 84.828125 1017.113281 53.171875 1029.773438 38.578125 C 1035.003906 32.25 1046.011719 31.699219 1045.460938 23.4375 Z M 1045.460938 23.4375 " fill-opacity="1" fill-rule="nonzero"/><path fill="#393a31" d="M 920.785156 62.804688 C 887.757812 29.21875 852.253906 63.90625 866.566406 104.925781 C 886.105469 160.8125 936.472656 103.273438 920.785156 62.804688 Z M 920.785156 62.804688 " fill-opacity="1" fill-rule="nonzero"/><path fill="#ffece2" d="M 924.636719 48.492188 C 911.152344 44.359375 899.316406 125.574219 903.722656 136.035156 C 914.730469 163.289062 937.023438 52.070312 924.636719 48.492188 Z M 924.636719 48.492188 " fill-opacity="1" fill-rule="nonzero"/><path fill="#393a31" d="M 1065.554688 83.453125 C 1063.902344 83.453125 1062.527344 82.078125 1062.527344 80.425781 C 1062.527344 70.238281 1073.261719 57.851562 1081.792969 54.824219 C 1083.445312 54.273438 1085.09375 55.097656 1085.644531 56.75 C 1086.195312 58.402344 1085.371094 60.054688 1083.71875 60.605469 C 1077.390625 62.804688 1068.582031 73.265625 1068.582031 80.425781 C 1068.582031 82.078125 1067.207031 83.453125 1065.554688 83.453125 Z M 1065.554688 83.453125 " fill-opacity="1" fill-rule="nonzero"/><path fill="#393a31" d="M 1122.527344 118.964844 C 1121.148438 118.964844 1119.773438 117.867188 1119.5 116.488281 C 1119.222656 114.835938 1120.324219 113.460938 1121.976562 113.183594 C 1126.929688 112.359375 1129.683594 109.605469 1132.984375 104.375 C 1133.808594 103 1135.738281 102.722656 1137.113281 103.550781 C 1138.488281 104.375 1138.765625 106.304688 1137.9375 107.679688 C 1134.636719 112.910156 1130.78125 117.867188 1122.800781 118.964844 C 1122.800781 118.964844 1122.527344 118.964844 1122.527344 118.964844 Z M 1122.527344 118.964844 " fill-opacity="1" fill-rule="nonzero"/><path fill="#393a31" d="M 1076.5625 88.960938 C 1075.460938 88.960938 1074.363281 88.410156 1073.8125 87.308594 C 1072.984375 85.929688 1073.8125 84.003906 1075.1875 83.453125 C 1079.316406 81.527344 1083.71875 75.746094 1083.71875 71.339844 C 1083.71875 69.6875 1085.09375 68.3125 1086.746094 68.3125 C 1088.398438 68.3125 1089.773438 69.6875 1089.773438 71.339844 C 1089.773438 78.773438 1083.445312 86.207031 1077.9375 88.960938 C 1077.390625 88.683594 1077.113281 88.960938 1076.5625 88.960938 Z M 1076.5625 88.960938 " fill-opacity="1" fill-rule="nonzero"/><path fill="#f5ac7f" d="M 1016.289062 257.714844 C 984.363281 267.625 990.691406 325.4375 992.621094 354.070312 C 994.820312 387.65625 1012.4375 419.589844 1021.242188 453.175781 C 1034.730469 504.933594 1037.757812 553.9375 1034.453125 608.167969 C 1032.25 642.304688 1023.167969 680.023438 1023.167969 714.984375 C 1023.167969 735.90625 1021.792969 777.203125 1036.378906 792.617188 C 1045.1875 801.976562 1074.085938 799.777344 1105.460938 801.425781 C 1130.78125 802.804688 1194.085938 809.6875 1195.1875 803.078125 C 1197.113281 790.964844 1136.835938 779.679688 1123.078125 777.75 C 1104.636719 775 1071.332031 775.824219 1066.378906 765.363281 C 1059.222656 750.222656 1073.8125 682.773438 1081.515625 656.898438 C 1093.078125 618.078125 1095.828125 576.785156 1096.929688 536.59375 C 1098.03125 503.832031 1091.148438 472.171875 1093.078125 440.511719 C 1134.636719 427.023438 1167.386719 393.4375 1145.371094 350.214844 C 1121.425781 303.691406 1066.929688 241.75 1016.289062 257.714844 Z M 1016.289062 257.714844 " fill-opacity="1" fill-rule="nonzero"/><path fill="#f5ac7f" d="M 1006.105469 263.222656 C 971.703125 295.15625 982.160156 365.355469 989.589844 406.925781 C 991.792969 418.765625 990.96875 435.28125 995.371094 446.292969 C 1005.554688 446.292969 1026.195312 453.175781 1028.949219 441.0625 C 1030.601562 434.457031 1020.417969 413.257812 1019.039062 406.101562 C 1016.5625 394.539062 1014.363281 382.425781 1011.335938 371.136719 C 1006.378906 351.867188 1000.875 335.074219 1000.601562 314.703125 C 1000.601562 299.011719 1005.828125 283.042969 1006.105469 263.222656 Z M 1006.105469 263.222656 " fill-opacity="1" fill-rule="nonzero"/><path fill="#f59d67" d="M 1075.1875 104.925781 C 1081.515625 98.042969 1094.726562 100.246094 1098.304688 104.925781 C 1101.882812 109.605469 1104.359375 128.050781 1093.078125 129.703125 C 1081.792969 131.355469 1060.324219 121.167969 1075.1875 104.925781 Z M 1075.1875 104.925781 " fill-opacity="1" fill-rule="nonzero"/><path fill="#393a31" d="M 1044.085938 145.945312 C 1036.378906 145.945312 1032.800781 142.089844 1031.703125 140.714844 C 1029.5 137.6875 1029.5 134.109375 1031.152344 131.628906 C 1031.976562 130.253906 1033.902344 130.253906 1035.277344 131.078125 C 1036.65625 131.90625 1036.929688 133.832031 1036.105469 135.210938 C 1036.105469 135.484375 1035.828125 136.308594 1036.65625 137.410156 C 1038.308594 139.890625 1043.261719 141.265625 1051.792969 138.789062 C 1053.445312 138.238281 1055.09375 139.0625 1055.371094 140.714844 C 1055.921875 142.367188 1055.09375 144.019531 1053.445312 144.292969 C 1049.867188 145.394531 1046.839844 145.945312 1044.085938 145.945312 Z M 1044.085938 145.945312 " fill-opacity="1" fill-rule="nonzero"/><path fill="#393a31" d="M 1102.160156 382.425781 C 1101.332031 382.425781 1100.507812 382.148438 1099.957031 381.324219 C 1098.855469 379.949219 1099.132812 378.296875 1100.234375 377.195312 C 1108.214844 370.589844 1114.820312 355.445312 1117.023438 347.464844 C 1117.570312 345.8125 1118.949219 344.984375 1120.597656 345.261719 C 1122.25 345.535156 1123.078125 347.1875 1122.800781 348.839844 C 1120.597656 357.375 1113.71875 373.890625 1104.085938 381.601562 C 1103.535156 382.148438 1102.984375 382.425781 1102.160156 382.425781 Z M 1102.160156 382.425781 " fill-opacity="1" fill-rule="nonzero"/><path fill="#393a31" d="M 1162.707031 806.109375 C 1162.433594 806.109375 1162.160156 806.109375 1161.882812 805.832031 L 1140.414062 798.675781 C 1138.765625 798.125 1137.9375 796.472656 1138.488281 794.820312 C 1139.039062 793.167969 1140.691406 792.34375 1142.34375 792.894531 L 1163.808594 800.050781 C 1165.460938 800.601562 1166.285156 802.253906 1165.738281 803.90625 C 1165.1875 805.558594 1164.085938 806.109375 1162.707031 806.109375 Z M 1162.707031 806.109375 " fill-opacity="1" fill-rule="nonzero"/><path fill="#393a31" d="M 1178.121094 803.355469 C 1177.570312 803.355469 1177.296875 803.355469 1176.746094 803.078125 L 1153.902344 792.066406 C 1152.527344 791.242188 1151.699219 789.589844 1152.527344 788.214844 C 1153.351562 786.835938 1155.003906 786.011719 1156.378906 786.835938 L 1179.222656 797.847656 C 1180.597656 798.675781 1181.425781 800.328125 1180.597656 801.703125 C 1180.324219 802.804688 1179.222656 803.355469 1178.121094 803.355469 Z M 1178.121094 803.355469 " fill-opacity="1" fill-rule="nonzero"/></svg>