<svg xmlns="http://www.w3.org/2000/svg" xmlns:xlink="http://www.w3.org/1999/xlink" width="1920" zoomAndPan="magnify" viewBox="0 0 1440 809.999993" height="1080" preserveAspectRatio="xMidYMid meet" version="1.0"><defs><clipPath id="b10cdb7318"><path d="M 710 295 L 1386 295 L 1386 809.785156 L 710 809.785156 Z M 710 295 " clip-rule="nonzero"/></clipPath></defs><path fill="#f5ac7f" d="M 881.375 418.269531 C 907.3125 427.34375 934.546875 448.734375 961.132812 453.597656 C 997.769531 460.726562 1020.140625 469.476562 1041.867188 503.507812 C 1063.589844 537.539062 1058.402344 567.355469 1024.355469 590.691406 C 1007.171875 602.359375 988.042969 611.109375 967.941406 612.082031 C 949.460938 613.054688 939.085938 600.089844 925.792969 596.851562 C 911.203125 592.960938 901.476562 609.8125 893.046875 603.332031 C 890.453125 601.386719 892.398438 592.3125 888.507812 588.421875 C 883.644531 583.238281 878.78125 579.671875 870.351562 575.457031 C 844.085938 562.820312 840.519531 552.125 859.003906 525.546875 C 878.132812 498.320312 847.328125 456.1875 868.40625 429.289062 Z M 881.375 418.269531 " fill-opacity="1" fill-rule="nonzero"/><path fill="#f5ac7f" d="M 93.503906 674.3125 C 86.046875 700.238281 65.296875 743.019531 60.433594 764.085938 C 51.03125 804.601562 127.226562 794.554688 156.082031 795.203125 C 189.476562 795.847656 237.785156 805.898438 269.882812 795.203125 C 287.714844 789.367188 285.769531 779.320312 274.746094 773.488281 C 258.859375 765.707031 232.273438 764.734375 215.089844 759.875 C 188.828125 752.417969 137.925781 734.269531 154.785156 700.238281 C 154.785156 700.238281 117.824219 688.246094 104.851562 675.929688 Z M 93.503906 674.3125 " fill-opacity="1" fill-rule="nonzero"/><path fill="#f5ac7f" d="M 549.367188 202.414062 C 550.988281 224.128906 559.417969 255.246094 564.605469 276.636719 C 568.820312 295.109375 567.847656 325.898438 573.359375 343.402344 C 580.167969 364.792969 589.246094 377.105469 604.808594 393.3125 C 629.125 335.296875 691.378906 288.949219 731.257812 242.605469 C 722.828125 235.148438 718.289062 224.453125 711.804688 215.378906 C 700.78125 199.5 686.515625 184.914062 672.898438 170.652344 C 645.335938 141.484375 617.128906 106.15625 594.433594 73.746094 C 589.894531 87.359375 592.488281 101.941406 590.542969 115.878906 C 587.949219 133.382812 578.546875 147.316406 569.144531 161.902344 C 562.335938 172.597656 557.148438 182.96875 552.285156 194.3125 Z M 549.367188 202.414062 " fill-opacity="1" fill-rule="nonzero"/><path fill="#393a31" d="M 941.03125 471.421875 C 939.410156 439.660156 963.726562 418.269531 994.851562 421.507812 C 1027.921875 424.75 1047.703125 451.976562 1062.617188 479.523438 C 1078.503906 509.019531 1084.988281 539.160156 1071.371094 571.570312 C 1062.617188 591.988281 1053.863281 603.332031 1031.492188 605.277344 C 1018.195312 606.25 996.472656 608.515625 984.476562 603.980469 C 956.59375 593.933594 936.167969 529.4375 939.734375 502.210938 Z M 941.03125 471.421875 " fill-opacity="1" fill-rule="nonzero"/><g clip-path="url(#b10cdb7318)"><path fill="#f5ac7f" d="M 715.371094 458.457031 C 710.832031 429.613281 706.292969 385.859375 720.558594 360.253906 C 731.90625 339.835938 740.011719 313.90625 760.4375 303.210938 C 786.699219 289.273438 786.699219 289.273438 834.683594 339.1875 C 861.273438 366.734375 878.132812 399.144531 904.394531 428.316406 C 923.523438 449.707031 936.167969 469.152344 952.054688 492.8125 C 970.535156 520.035156 989.015625 552.125 1020.464844 574.8125 C 1046.730469 593.609375 1067.480469 617.59375 1092.769531 638.660156 C 1116.4375 658.429688 1146.265625 689.542969 1167.015625 712.230469 C 1191.007812 738.808594 1203.976562 749.179688 1243.859375 764.410156 C 1282.765625 779.320312 1332.695312 777.375 1380.679688 795.203125 C 1384.246094 796.496094 1389.109375 803.304688 1379.707031 805.574219 C 1376.789062 806.222656 1334.964844 807.515625 1311.621094 808.8125 C 1292.816406 809.785156 1270.769531 809.136719 1251.316406 808.8125 C 1195.546875 808.164062 1165.070312 771.542969 1124.21875 738.808594 C 1101.199219 720.332031 1079.800781 702.832031 1054.511719 686.949219 C 1027.601562 670.097656 1000.6875 647.734375 975.074219 629.261719 C 931.304688 597.820312 893.695312 561.523438 858.355469 521.332031 C 839.546875 499.941406 817.824219 489.570312 789.941406 485.035156 C 770.164062 481.792969 726.070312 483.414062 713.425781 466.882812 Z M 715.371094 458.457031 " fill-opacity="1" fill-rule="nonzero"/></g><path fill="#393a31" d="M 1064.886719 495.40625 C 1077.207031 494.433594 1086.285156 483.738281 1101.199219 485.683594 C 1118.382812 488.273438 1122.921875 500.589844 1124.542969 516.148438 C 1127.460938 543.371094 1097.957031 573.515625 1071.371094 550.828125 C 1061.644531 542.398438 1060.347656 522.304688 1061.644531 509.664062 Z M 1064.886719 495.40625 " fill-opacity="1" fill-rule="nonzero"/><path fill="#ffece2" d="M 1072.667969 485.359375 C 1054.1875 485.359375 1058.726562 578.699219 1082.394531 564.117188 C 1095.363281 556.335938 1078.179688 541.105469 1076.234375 528.140625 C 1074.289062 514.527344 1075.585938 519.066406 1074.9375 509.664062 C 1074.9375 504.480469 1083.367188 485.359375 1072.667969 485.359375 Z M 1072.667969 485.359375 " fill-opacity="1" fill-rule="nonzero"/><path fill="#bcb1f5" d="M 89.9375 685.007812 C 87.992188 673.339844 116.203125 610.136719 122.363281 588.746094 C 137.601562 537.863281 167.753906 480.496094 199.203125 438.039062 C 237.136719 386.507812 258.535156 353.773438 279.609375 298.027344 C 301.984375 238.714844 318.195312 197.878906 345.753906 141.160156 C 361.316406 109.074219 373.3125 70.828125 398.925781 43.605469 C 414.8125 26.425781 434.589844 16.378906 456.960938 11.519531 C 487.117188 5.035156 523.753906 10.546875 549.691406 26.75 C 574.332031 42.308594 589.570312 49.113281 602.863281 72.449219 C 625.234375 111.667969 605.457031 164.171875 580.167969 197.878906 C 575.953125 203.710938 564.929688 218.621094 557.148438 219.917969 C 552.933594 220.566406 550.339844 217.324219 543.53125 210.195312 C 535.101562 201.441406 535.75 195.933594 522.78125 207.277344 C 510.136719 218.296875 502.03125 238.390625 491.007812 251.355469 C 459.554688 287.332031 427.457031 322.332031 397.953125 359.605469 C 376.878906 386.507812 295.5 473.691406 283.175781 498.320312 C 265.667969 532.675781 246.539062 556.660156 224.492188 588.421875 C 207.308594 613.378906 189.152344 643.84375 172.941406 669.125 C 166.132812 679.496094 159.972656 708.339844 152.515625 711.257812 C 144.734375 714.5 116.851562 700.886719 111.664062 699.589844 C 104.203125 698.292969 91.234375 692.136719 89.9375 685.007812 Z M 89.9375 685.007812 " fill-opacity="1" fill-rule="nonzero"/><path fill="#ffece2" d="M 593.136719 385.535156 C 588.921875 365.117188 636.257812 329.789062 650.523438 313.257812 C 672.25 287.980469 694.296875 242.929688 726.71875 230.289062 C 738.390625 240.335938 749.414062 253.625 759.789062 264.96875 C 767.246094 273.070312 790.589844 292.515625 790.265625 297.703125 C 790.265625 297.703125 769.191406 310.988281 753.953125 326.546875 C 740.335938 340.484375 731.582031 356.363281 727.367188 375.488281 C 721.53125 401.089844 719.910156 438.039062 739.363281 458.78125 C 752.980469 473.042969 789.941406 475.636719 790.265625 484.710938 C 790.589844 491.515625 757.519531 487.625 743.902344 486.332031 C 726.394531 484.386719 707.589844 491.515625 690.40625 486.007812 C 669.65625 479.199219 648.902344 445.167969 634.3125 430.261719 C 625.882812 421.183594 592.8125 393.3125 593.136719 385.535156 Z M 593.136719 385.535156 " fill-opacity="1" fill-rule="nonzero"/><path fill="#393a31" d="M 872.296875 578.375 C 871.648438 578.375 871.324219 578.375 870.675781 578.050781 C 869.054688 577.078125 868.082031 575.136719 869.054688 573.515625 C 869.378906 572.542969 870.027344 571.570312 870.351562 570.273438 C 871.324219 568.328125 871.972656 566.058594 873.269531 564.4375 C 874.242188 562.820312 876.1875 562.171875 878.132812 563.144531 C 879.753906 564.117188 880.402344 566.058594 879.429688 568.003906 C 878.457031 569.625 877.808594 571.570312 877.160156 573.191406 C 876.835938 574.488281 876.1875 575.457031 875.539062 576.429688 C 874.890625 577.402344 873.59375 578.375 872.296875 578.375 Z M 872.296875 578.375 " fill-opacity="1" fill-rule="nonzero"/><path fill="#393a31" d="M 536.398438 197.878906 C 536.074219 197.878906 535.75 197.878906 535.425781 197.878906 C 533.480469 197.230469 532.507812 195.609375 532.832031 193.664062 L 546.125 144.726562 C 546.773438 142.78125 548.394531 141.808594 550.339844 142.132812 C 552.285156 142.78125 553.257812 144.402344 552.933594 146.34375 L 539.640625 195.609375 C 539.316406 196.90625 538.019531 197.878906 536.398438 197.878906 Z M 536.398438 197.878906 " fill-opacity="1" fill-rule="nonzero"/><path fill="#393a31" d="M 94.800781 762.144531 C 93.828125 762.144531 92.855469 761.820312 92.207031 760.847656 C 87.992188 755.660156 86.371094 748.207031 87.34375 741.074219 C 88.640625 733.621094 92.53125 727.464844 98.042969 723.574219 C 99.664062 722.601562 101.933594 722.925781 102.90625 724.546875 C 103.878906 726.167969 103.554688 728.4375 101.933594 729.410156 C 98.042969 732 95.125 736.863281 94.152344 742.046875 C 93.179688 747.558594 94.476562 752.742188 97.71875 756.632812 C 99.015625 758.253906 98.691406 760.199219 97.070312 761.496094 C 96.421875 761.820312 95.773438 762.144531 94.800781 762.144531 Z M 94.800781 762.144531 " fill-opacity="1" fill-rule="nonzero"/></svg>