<svg xmlns="http://www.w3.org/2000/svg" xmlns:xlink="http://www.w3.org/1999/xlink" width="1080" zoomAndPan="magnify" viewBox="0 0 810 1439.999935" height="1920" preserveAspectRatio="xMidYMid meet" version="1.0"><path fill="#faceae" d="M 751.460938 1216.359375 C 736.761719 1212.488281 723.351562 1209.910156 707.878906 1210.683594 C 690.34375 1211.457031 670.488281 1216.359375 653.210938 1211.714844 C 636.703125 1207.332031 624.84375 1205.269531 607.566406 1210.425781 C 607.566406 1210.425781 643.410156 1179.21875 632.835938 1129.441406 C 622.261719 1079.664062 611.175781 1052.84375 577.394531 1052.070312 C 562.695312 1041.753906 522.722656 1042.527344 513.179688 1040.980469 C 501.574219 1039.171875 464.183594 1015.703125 464.183594 1015.703125 C 464.183594 1015.703125 446.390625 1047.167969 431.691406 1051.554688 C 415.703125 1056.453125 389.398438 1071.671875 393.523438 1087.402344 C 396.617188 1099.78125 431.691406 1131.761719 431.691406 1131.761719 C 431.691406 1131.761719 397.394531 1133.828125 373.667969 1125.058594 C 359.226562 1119.640625 348.652344 1105.199219 341.949219 1093.335938 C 344.269531 1085.855469 346.332031 1047.167969 316.675781 1031.179688 C 286.761719 1015.1875 282.378906 980.371094 280.574219 966.957031 C 278.769531 953.546875 282.894531 884.425781 282.894531 884.425781 C 282.894531 884.425781 299.65625 572.613281 300.6875 507.105469 C 301.71875 441.851562 295.015625 300.777344 295.015625 300.777344 L 291.917969 300.777344 C 292.175781 277.820312 292.953125 178.269531 295.015625 159.183594 C 297.335938 137.777344 303.007812 53.953125 300.6875 37.449219 C 298.109375 20.941406 284.441406 0.0507812 272.835938 29.195312 C 261.230469 58.339844 252.207031 72.523438 248.597656 83.613281 C 244.726562 95.21875 204.242188 157.636719 202.953125 179.042969 C 201.660156 200.449219 224.097656 205.605469 229.511719 215.921875 C 234.15625 224.691406 229.769531 284.011719 228.480469 301.292969 L 224.355469 301.292969 C 224.355469 301.292969 215.84375 505.8125 203.210938 552.238281 C 190.574219 598.664062 162.464844 705.179688 138.738281 720.394531 C 120.171875 732.261719 92.578125 782.550781 111.660156 836.714844 C 113.46875 844.449219 110.371094 853.476562 109.597656 861.214844 C 108.566406 869.46875 107.792969 877.464844 108.050781 885.714844 C 108.566406 899.902344 111.402344 914.085938 115.789062 927.5 C 122.234375 947.617188 129.972656 968.25 128.425781 989.65625 C 128.167969 994.039062 125.070312 998.941406 123.523438 1002.808594 C 105.988281 1042.011719 84.84375 1079.921875 64.984375 1117.835938 C 53.640625 1139.242188 42.292969 1160.648438 31.203125 1182.054688 C 26.820312 1190.566406 22.4375 1199.078125 18.050781 1207.589844 C 13.410156 1216.875 0 1232.089844 8.511719 1242.40625 C 13.667969 1248.597656 22.695312 1251.175781 29.914062 1253.753906 C 45.386719 1259.171875 62.148438 1258.914062 78.394531 1259.945312 C 119.140625 1263.039062 159.886719 1264.84375 200.886719 1266.394531 C 229.769531 1267.425781 258.652344 1268.199219 287.535156 1267.425781 C 304.8125 1266.910156 325.1875 1267.941406 341.691406 1261.492188 C 345.300781 1260.203125 348.136719 1258.398438 350.457031 1256.335938 C 361.804688 1249.886719 377.277344 1238.796875 382.953125 1223.320312 C 393.265625 1212.230469 424.726562 1200.109375 430.144531 1217.132812 C 430.660156 1218.679688 431.433594 1219.96875 432.464844 1221 C 434.785156 1224.871094 437.878906 1228.222656 441.746094 1230.800781 C 464.957031 1246.277344 491.519531 1247.050781 518.339844 1246.792969 C 524.527344 1246.792969 576.101562 1249.886719 577.910156 1242.40625 C 578.683594 1238.539062 592.347656 1246.792969 594.671875 1247.824219 C 606.789062 1252.207031 620.714844 1256.335938 633.867188 1254.011719 C 640.316406 1252.980469 646.503906 1250.144531 652.953125 1249.113281 C 673.324219 1245.761719 693.179688 1259.429688 713.8125 1259.6875 C 730.574219 1259.945312 747.078125 1253.753906 764.097656 1252.980469 C 778.796875 1252.207031 793.753906 1251.175781 808.453125 1251.175781 C 807.9375 1251.175781 784.726562 1225.386719 751.460938 1216.359375 Z M 138.996094 1184.121094 C 123.523438 1185.410156 113.726562 1167.871094 119.140625 1153.429688 C 127.910156 1129.699219 136.675781 1106.230469 145.445312 1082.503906 C 146.21875 1080.4375 146.992188 1078.375 147.765625 1076.3125 C 148.539062 1094.367188 148.796875 1107.777344 148.796875 1112.421875 C 148.539062 1131.503906 149.054688 1163.230469 160.660156 1182.054688 C 152.921875 1182.828125 145.445312 1183.601562 138.996094 1184.121094 Z M 138.996094 1184.121094 " fill-opacity="1" fill-rule="nonzero"/><path fill="#faceae" d="M 295.015625 159.957031 C 297.335938 138.550781 303.007812 54.730469 300.6875 38.222656 C 298.109375 21.714844 284.441406 0.824219 272.835938 29.96875 C 261.230469 59.113281 252.207031 73.296875 248.597656 84.386719 C 244.726562 95.21875 204.242188 157.636719 202.953125 179.042969 C 201.660156 200.449219 224.097656 205.605469 229.511719 215.921875 C 234.15625 224.691406 229.769531 284.011719 228.480469 301.292969 L 291.917969 301.292969 C 292.175781 278.59375 292.953125 179.042969 295.015625 159.957031 Z M 295.015625 159.957031 " fill-opacity="1" fill-rule="nonzero"/><path fill="#98986d" d="M 383.984375 1222.804688 C 383.984375 1222.804688 375.472656 1207.589844 366.1875 1190.308594 C 347.363281 1155.75 342.464844 1146.207031 341.949219 1144.144531 C 339.628906 1137.4375 341.175781 1101.589844 343.238281 1094.367188 C 346.074219 1085.082031 346.847656 1046.652344 317.191406 1030.664062 C 288.308594 1015.1875 283.667969 981.917969 281.863281 967.730469 L 281.863281 967.214844 C 280.058594 954.0625 284.183594 885.714844 284.183594 884.941406 C 284.183594 884.167969 283.667969 883.652344 283.152344 883.652344 C 227.191406 873.078125 142.609375 879.269531 138.996094 879.527344 C 138.480469 879.527344 138.222656 879.785156 137.964844 880.042969 C 137.707031 880.300781 137.707031 880.816406 137.964844 881.332031 C 138.480469 882.878906 139.253906 884.683594 140.027344 886.75 C 144.414062 898.613281 151.890625 918.472656 162.980469 920.792969 C 167.363281 921.824219 171.746094 920.019531 176.132812 915.375 C 188.511719 902.738281 196.503906 894.226562 199.597656 890.101562 C 201.144531 888.039062 202.175781 887.523438 202.695312 887.78125 C 203.46875 888.039062 204.242188 889.84375 204.5 892.9375 C 204.757812 902.480469 200.886719 911.765625 197.277344 920.535156 L 197.019531 921.308594 C 193.410156 930.078125 190.316406 939.621094 187.476562 950.453125 C 185.929688 956.382812 184.640625 962.316406 183.351562 967.992188 C 180.257812 982.433594 176.90625 997.132812 171.230469 1011.0625 C 162.722656 1032.210938 154.726562 1053.875 146.992188 1074.765625 L 146.734375 1075.539062 C 146.734375 1075.796875 146.734375 1075.796875 146.734375 1076.054688 C 147.507812 1095.65625 147.765625 1107.777344 147.765625 1112.164062 C 147.507812 1133.3125 148.28125 1163.746094 159.886719 1182.570312 C 160.144531 1183.085938 160.660156 1183.085938 161.175781 1183.085938 C 203.726562 1179.734375 279.027344 1174.320312 307.652344 1178.703125 C 319.769531 1180.507812 326.734375 1183.34375 334.46875 1189.277344 C 345.558594 1197.789062 357.679688 1217.648438 358.195312 1234.671875 C 358.453125 1243.4375 355.617188 1250.144531 349.683594 1255.042969 C 349.167969 1255.5625 349.167969 1256.335938 349.425781 1256.851562 C 349.683594 1257.109375 350.199219 1257.367188 350.457031 1257.367188 C 350.714844 1257.367188 350.972656 1257.367188 350.972656 1257.109375 C 362.835938 1250.402344 378.308594 1239.054688 384.242188 1223.320312 C 384.242188 1223.320312 383.984375 1223.0625 383.984375 1222.804688 Z M 383.984375 1222.804688 " fill-opacity="1" fill-rule="nonzero"/><path fill="#faceae" d="M 427.046875 1200.367188 C 426.789062 1207.589844 428.339844 1214.8125 432.207031 1221 C 431.175781 1219.96875 430.402344 1218.679688 429.886719 1217.132812 C 424.726562 1200.109375 393.007812 1212.230469 382.695312 1223.320312 C 382.695312 1223.320312 374.441406 1207.847656 364.898438 1190.824219 C 353.8125 1170.707031 341.691406 1148.011719 340.402344 1144.402344 C 338.082031 1137.695312 339.371094 1101.328125 341.691406 1093.851562 C 348.136719 1105.714844 358.710938 1120.15625 373.410156 1125.574219 C 397.132812 1134.34375 431.433594 1132.277344 431.433594 1132.277344 C 431.433594 1132.277344 396.359375 1100.296875 393.265625 1087.917969 C 389.398438 1072.1875 415.445312 1056.96875 431.433594 1052.070312 C 445.875 1047.683594 463.925781 1016.21875 463.925781 1016.21875 C 463.925781 1016.21875 501.316406 1039.6875 512.921875 1041.496094 C 522.464844 1043.042969 562.433594 1042.269531 577.132812 1052.585938 C 577.132812 1052.585938 576.617188 1080.179688 569.398438 1090.496094 C 559.597656 1104.167969 552.121094 1121.960938 535.359375 1128.410156 C 518.339844 1134.859375 517.566406 1135.117188 517.566406 1135.117188 C 519.371094 1134.34375 527.621094 1140.53125 528.910156 1141.820312 C 539.484375 1151.105469 521.691406 1165.808594 511.632812 1165.035156 C 502.867188 1164.261719 493.839844 1156.78125 487.132812 1151.621094 C 484.039062 1149.300781 461.089844 1153.945312 458.253906 1158.328125 C 455.15625 1162.195312 427.566406 1189.019531 427.046875 1200.367188 Z M 334.984375 1188.503906 C 327.25 1182.570312 320.027344 1179.476562 307.390625 1177.671875 C 279.800781 1173.546875 210.171875 1177.929688 160.402344 1182.054688 C 152.664062 1182.570312 145.1875 1183.34375 138.738281 1183.863281 C 123.265625 1185.152344 113.46875 1167.613281 118.882812 1153.171875 C 127.652344 1129.441406 136.417969 1105.972656 145.1875 1082.246094 C 145.960938 1080.179688 146.734375 1078.117188 147.507812 1076.054688 C 155.5 1054.390625 163.496094 1032.984375 172.003906 1011.578125 C 179.742188 991.976562 183.09375 971.085938 188.253906 950.453125 C 190.832031 940.652344 193.667969 930.851562 197.535156 921.566406 C 201.402344 912.28125 205.273438 902.738281 205.015625 892.679688 C 204.757812 887.007812 202.175781 883.394531 197.792969 889.070312 C 193.925781 893.96875 183.609375 904.800781 174.328125 914.34375 C 155.242188 933.945312 143.382812 892.9375 138.480469 880.558594 C 133.839844 869.210938 110.628906 831.554688 111.660156 836.457031 C 113.46875 844.191406 110.371094 853.21875 109.597656 860.957031 C 108.566406 869.210938 107.792969 877.207031 108.050781 885.457031 C 108.566406 899.644531 111.402344 913.828125 115.789062 927.242188 C 122.234375 947.355469 129.972656 967.988281 128.425781 989.398438 C 128.167969 993.78125 125.070312 998.679688 123.523438 1002.550781 C 105.988281 1041.753906 84.84375 1079.664062 64.984375 1117.578125 C 53.640625 1138.984375 42.292969 1160.390625 31.203125 1181.796875 C 26.820312 1190.308594 22.433594 1198.820312 18.050781 1207.332031 C 13.410156 1216.617188 0 1231.832031 8.511719 1242.148438 C 13.667969 1248.339844 22.695312 1250.917969 29.914062 1253.496094 C 45.386719 1258.914062 62.148438 1258.65625 78.394531 1259.6875 C 119.140625 1262.78125 159.886719 1264.585938 200.886719 1266.136719 C 229.769531 1267.167969 258.652344 1267.941406 287.535156 1267.167969 C 304.8125 1266.652344 325.1875 1267.683594 341.691406 1261.234375 C 345.300781 1259.945312 348.136719 1258.140625 350.457031 1256.078125 C 370.574219 1239.3125 352.003906 1201.65625 334.984375 1188.503906 Z M 334.984375 1188.503906 " fill-opacity="1" fill-rule="nonzero"/><path fill="#ae4c29" d="M 809.226562 1249.886719 C 808.195312 1248.855469 785.5 1223.320312 751.976562 1214.296875 C 739.082031 1210.941406 724.640625 1207.847656 707.878906 1208.621094 C 702.722656 1208.878906 697.304688 1209.394531 692.148438 1209.910156 C 679.253906 1211.199219 665.84375 1212.746094 653.726562 1209.652344 C 639.285156 1206.042969 627.9375 1203.71875 613.753906 1206.558594 C 623.296875 1195.726562 643.152344 1167.613281 634.898438 1128.925781 C 624.070312 1077.085938 611.949219 1050.78125 577.648438 1050.003906 C 577.132812 1050.003906 576.617188 1050.265625 576.359375 1050.523438 C 576.101562 1050.78125 575.84375 1051.296875 575.84375 1051.8125 C 575.84375 1052.070312 575.328125 1078.890625 568.367188 1088.691406 C 566.046875 1091.789062 563.984375 1095.398438 561.917969 1098.492188 C 554.957031 1109.582031 547.738281 1121.1875 535.101562 1125.832031 C 518.082031 1132.277344 517.304688 1132.539062 517.304688 1132.539062 C 516.273438 1132.796875 515.757812 1134.085938 516.273438 1135.117188 C 516.53125 1136.148438 517.566406 1136.40625 518.597656 1136.40625 C 520.402344 1136.664062 526.589844 1141.046875 528.394531 1142.59375 C 530.972656 1144.917969 531.488281 1147.753906 530.199219 1150.847656 C 527.621094 1157.039062 518.339844 1162.96875 512.40625 1162.195312 C 505.1875 1161.679688 497.449219 1155.75 491.261719 1151.105469 C 490.488281 1150.332031 489.457031 1149.816406 488.683594 1149.300781 C 486.875 1148.011719 482.75 1148.011719 476.046875 1149.042969 C 474.5 1149.300781 460.058594 1151.878906 456.960938 1156.265625 C 456.1875 1157.296875 453.867188 1159.875 451.03125 1162.96875 C 438.136719 1176.898438 425.757812 1191.339844 425.5 1199.851562 C 425.242188 1207.589844 427.046875 1215.328125 430.917969 1221.515625 C 433.496094 1225.902344 436.847656 1229.253906 440.714844 1232.089844 C 464.183594 1247.566406 490.746094 1248.597656 518.339844 1248.339844 C 519.371094 1248.339844 521.433594 1248.339844 524.269531 1248.597656 C 562.4375 1249.886719 577.652344 1248.339844 579.457031 1242.921875 C 581.519531 1242.921875 587.707031 1246.277344 590.285156 1247.566406 C 592.089844 1248.597656 593.125 1249.113281 593.898438 1249.371094 C 607.046875 1254.011719 620.714844 1257.882812 634.125 1255.558594 C 637.480469 1255.042969 640.574219 1254.011719 643.410156 1253.238281 C 646.761719 1252.207031 649.855469 1251.433594 652.953125 1250.917969 C 663.78125 1249.113281 674.355469 1252.464844 685.703125 1255.816406 C 694.726562 1258.65625 704.011719 1261.492188 713.554688 1261.492188 C 713.8125 1261.492188 713.8125 1261.492188 714.070312 1261.492188 C 723.09375 1261.492188 732.121094 1259.6875 740.886719 1258.140625 C 748.367188 1256.59375 756.101562 1255.300781 763.839844 1254.785156 C 767.964844 1254.527344 772.347656 1254.269531 776.476562 1254.269531 C 786.789062 1253.753906 797.621094 1253.238281 807.9375 1253.238281 C 808.710938 1253.238281 809.484375 1252.722656 809.742188 1252.207031 C 810 1251.433594 809.742188 1250.660156 809.226562 1249.886719 Z M 809.226562 1249.886719 " fill-opacity="1" fill-rule="nonzero"/><path fill="#687752" d="M 296.5625 301.292969 C 296.5625 300.257812 295.789062 299.484375 294.757812 299.484375 L 224.355469 299.484375 C 223.324219 299.484375 222.550781 300.257812 222.550781 301.292969 C 222.550781 303.355469 214.039062 506.074219 201.660156 551.722656 L 200.371094 556.105469 C 187.21875 604.335938 160.144531 704.40625 137.964844 718.847656 C 112.175781 735.355469 103.410156 767.078125 104.699219 796.222656 C 105.988281 831.554688 124.554688 851.15625 137.191406 881.847656 C 137.449219 882.621094 138.222656 883.136719 139.253906 883.136719 C 142.867188 882.878906 226.933594 876.691406 282.378906 887.265625 C 282.378906 887.265625 282.636719 887.265625 282.636719 887.265625 C 283.152344 887.265625 283.410156 887.007812 283.925781 886.75 C 284.441406 886.492188 284.699219 885.976562 284.699219 885.199219 C 284.957031 882.105469 301.460938 572.613281 302.492188 507.878906 C 303.265625 443.140625 296.5625 302.839844 296.5625 301.292969 Z M 296.5625 301.292969 " fill-opacity="1" fill-rule="nonzero"/></svg>