<svg xmlns="http://www.w3.org/2000/svg" xmlns:xlink="http://www.w3.org/1999/xlink" width="1920" zoomAndPan="magnify" viewBox="0 0 1440 1439.999935" height="1920" preserveAspectRatio="xMidYMid meet" version="1.0"><path fill="#f5ac7f" d="M 1057.085938 640.417969 C 1057.601562 661.136719 1071.335938 675.640625 1043.613281 684.191406 C 1032.214844 687.816406 1029.363281 689.886719 1019 694.808594 C 1009.15625 699.472656 1001.121094 705.945312 992.574219 711.902344 C 967.960938 729.257812 958.632812 753.601562 957.078125 784.425781 C 955.523438 813.953125 969.773438 837.261719 1001.121094 830.527344 C 1032.472656 823.792969 1046.980469 790.125 1065.894531 769.144531 C 1081.179688 752.050781 1106.3125 737.804688 1127.039062 729.257812 C 1138.4375 724.59375 1159.941406 728.21875 1169.527344 720.449219 C 1181.703125 710.347656 1169.527344 699.730469 1165.382812 691.699219 C 1159.164062 679.785156 1165.121094 679.007812 1170.824219 666.835938 C 1175.746094 656.21875 1178.855469 658.808594 1189.476562 654.921875 C 1200.359375 651.035156 1201.914062 648.1875 1201.914062 631.609375 C 1201.914062 603.121094 1162.53125 597.421875 1132.738281 600.789062 C 1126.519531 601.566406 1121.335938 605.710938 1119.523438 607.003906 C 1115.378906 609.59375 1110.972656 602.34375 1105.792969 604.15625 C 1102.941406 605.191406 1106.3125 609.078125 1101.386719 613.480469 C 1096.726562 617.882812 1092.578125 615.554688 1087.398438 618.144531 C 1082.992188 620.472656 1077.8125 626.171875 1072.628906 629.019531 C 1067.707031 632.386719 1056.824219 626.691406 1057.085938 640.417969 Z M 1057.085938 640.417969 " fill-opacity="1" fill-rule="nonzero"/><path fill="#f5ac7f" d="M 1011.488281 142.605469 C 1016.410156 143.644531 1002.160156 200.105469 996.460938 212.019531 C 977.027344 251.90625 984.800781 289.464844 989.207031 333.753906 C 992.574219 366.128906 992.3125 399.28125 990.5 431.660156 C 988.6875 461.183594 992.832031 488.640625 998.015625 517.90625 C 1003.195312 546.65625 1009.933594 574.113281 1012.78125 602.863281 C 1014.335938 618.921875 1015.632812 635.496094 1016.410156 651.8125 C 1016.925781 660.359375 1020.296875 672.792969 1019 681.082031 C 1015.890625 700.507812 968.738281 695.585938 952.15625 690.664062 C 935.058594 685.742188 922.101562 673.828125 905.78125 667.355469 C 897.488281 663.988281 879.09375 661.914062 876.246094 652.589844 C 888.941406 646.117188 901.117188 647.152344 912.777344 637.570312 C 923.140625 629.019531 928.320312 616.589844 931.429688 604.15625 C 936.09375 585.25 932.207031 567.378906 931.429688 548.210938 C 930.394531 520.238281 929.617188 492.265625 932.464844 464.550781 C 938.164062 410.160156 936.09375 354.992188 941.792969 300.34375 C 945.679688 262.269531 948.269531 249.835938 943.347656 211.503906 C 941.015625 192.59375 938.425781 180.164062 951.121094 124.476562 C 952.414062 118.777344 956.300781 108.675781 962.777344 99.09375 C 970.808594 87.179688 978.582031 80.1875 985.058594 90.289062 C 989.464844 97.28125 996.976562 105.828125 997.496094 122.921875 C 998.015625 135.875 992.054688 169.027344 996.199219 169.542969 C 995.941406 169.285156 1006.046875 141.570312 1011.488281 142.605469 Z M 1011.488281 142.605469 " fill-opacity="1" fill-rule="nonzero"/><path fill="#f5ac7f" d="M 655.765625 685.484375 C 651.878906 695.585938 667.421875 725.628906 670.015625 737.027344 C 675.972656 765.257812 686.59375 790.382812 704.730469 812.914062 C 716.390625 827.160156 729.863281 840.113281 742.039062 854.097656 C 756.289062 870.15625 761.210938 873.003906 781.9375 875.078125 C 802.148438 877.148438 828.832031 888.027344 849.558594 882.589844 C 864.066406 878.703125 861.21875 847.105469 861.734375 832.859375 C 863.289062 798.410156 856.296875 764.742188 846.191406 732.105469 C 840.75 714.753906 829.351562 688.851562 815.359375 677.195312 C 800.851562 665.023438 761.472656 672.792969 744.890625 678.230469 C 725.976562 684.449219 707.582031 687.816406 687.890625 688.59375 C 678.304688 688.332031 661.722656 685.226562 655.765625 685.484375 Z M 655.765625 685.484375 " fill-opacity="1" fill-rule="nonzero"/><path fill="#f5ac7f" d="M 326.210938 1280.164062 C 325.953125 1306.324219 307.296875 1334.035156 299.265625 1358.125 C 295.378906 1370.296875 302.894531 1379.621094 300.300781 1392.3125 C 297.453125 1406.816406 299.523438 1418.992188 312.738281 1427.277344 C 327.246094 1436.601562 372.328125 1439.453125 388.910156 1431.683594 C 414.558594 1419.769531 360.410156 1390.757812 353.933594 1374.699219 C 348.75 1361.75 352.636719 1340.769531 354.449219 1334.035156 C 357.558594 1323.160156 360.929688 1316.941406 364.554688 1306.0625 C 372.328125 1283.269531 364.035156 1289.746094 349.269531 1286.898438 C 341.238281 1284.824219 332.6875 1283.789062 326.210938 1280.164062 Z M 326.210938 1280.164062 " fill-opacity="1" fill-rule="nonzero"/><path fill="#f5ac7f" d="M 1017.703125 1317.460938 C 1017.445312 1323.160156 1036.097656 1338.699219 1040.761719 1346.46875 C 1046.980469 1357.347656 1043.09375 1368.484375 1048.792969 1379.363281 C 1055.53125 1392.570312 1078.847656 1396.976562 1093.097656 1391.796875 C 1108.125 1386.613281 1121.855469 1388.167969 1138.957031 1388.167969 C 1168.492188 1388.167969 1190.253906 1398.269531 1219.269531 1391.796875 C 1237.667969 1387.652344 1250.878906 1382.988281 1231.707031 1376.253906 C 1216.679688 1371.074219 1188.441406 1363.304688 1169.007812 1353.203125 C 1143.878906 1339.992188 1113.566406 1328.597656 1100.351562 1321.085938 C 1091.023438 1315.648438 1053.457031 1295.703125 1043.871094 1279.90625 C 1037.652344 1296.480469 1020.8125 1303.472656 1017.703125 1317.460938 Z M 1017.703125 1317.460938 " fill-opacity="1" fill-rule="nonzero"/><path fill="#bcb1f5" d="M 664.832031 684.191406 C 659.132812 682.636719 634.261719 689.109375 620.53125 691.960938 C 605.761719 695.066406 561.71875 709.832031 530.886719 737.546875 C 496.945312 768.109375 472.074219 804.886719 459.898438 865.492188 C 454.457031 892.691406 427.253906 1003.804688 411.449219 1035.144531 C 394.089844 1069.851562 364.554688 1109.738281 354.449219 1147.550781 C 347.457031 1172.933594 336.316406 1194.433594 331.910156 1220.074219 C 328.800781 1237.945312 309.109375 1310.984375 309.109375 1320.050781 C 309.109375 1325.488281 318.4375 1330.667969 331.910156 1334.035156 C 339.683594 1336.109375 352.636719 1343.878906 357.042969 1337.402344 C 359.890625 1333 397.71875 1242.089844 413.78125 1210.230469 C 429.84375 1177.855469 474.40625 1088.5 490.988281 1061.5625 C 510.679688 1029.964844 535.289062 993.960938 550.058594 963.140625 C 557.570312 947.597656 585.554688 903.566406 599.027344 892.949219 C 604.207031 907.195312 640.738281 954.59375 650.84375 967.542969 C 664.316406 984.894531 687.632812 1011.574219 702.398438 1028.148438 C 718.464844 1046.019531 737.636719 1061.5625 753.179688 1079.691406 C 766.132812 1094.714844 804.738281 1135.898438 817.171875 1150.402344 C 830.128906 1165.421875 874.171875 1220.589844 894.378906 1238.203125 C 924.695312 1264.621094 986.097656 1303.734375 1014.335938 1332.484375 C 1024.699219 1327.820312 1040.246094 1309.429688 1048.792969 1301.402344 C 1056.308594 1294.148438 1062.527344 1292.078125 1056.046875 1284.566406 C 1042.058594 1268.25 998.015625 1221.367188 970.808594 1193.914062 C 942.828125 1165.683594 896.195312 1117.507812 868.730469 1068.296875 C 833.496094 1005.097656 803.183594 959.511719 789.453125 940.085938 C 747.480469 880 770.796875 879.480469 771.574219 870.675781 C 772.351562 861.351562 721.570312 824.054688 707.324219 796.082031 C 694.109375 770.179688 687.113281 751.53125 678.5625 723.300781 C 674.160156 707.5 670.792969 685.742188 664.832031 684.191406 Z M 664.832031 684.191406 " fill-opacity="1" fill-rule="nonzero"/><path fill="#f5ac7f" d="M 960.964844 874.816406 C 956.300781 873.78125 967.441406 879.480469 970.550781 881.292969 C 974.695312 883.882812 979.878906 886.734375 983.765625 890.359375 C 994.644531 900.460938 988.429688 928.949219 986.875 942.9375 C 983.765625 974.277344 982.210938 992.40625 985.320312 1024.523438 C 989.722656 1067 986.875 1105.332031 984.542969 1148.070312 C 982.210938 1192.101562 990.242188 1232.765625 988.429688 1276.019531 C 987.390625 1299.589844 987.390625 1316.164062 991.019531 1335.851562 C 993.609375 1349.316406 996.199219 1385.0625 1005.527344 1384.800781 C 1011.488281 1384.800781 998.015625 1346.988281 1005.527344 1345.691406 C 1010.710938 1344.914062 1019.257812 1400.34375 1031.953125 1397.753906 C 1038.171875 1396.457031 1014.078125 1351.390625 1021.851562 1350.613281 C 1027.03125 1350.09375 1046.980469 1401.121094 1060.710938 1393.609375 C 1071.335938 1387.910156 1060.710938 1369.003906 1055.53125 1353.460938 C 1051.902344 1342.582031 1044.648438 1327.042969 1043.871094 1315.90625 C 1051.644531 1321.605469 1069.261719 1349.316406 1077.8125 1343.101562 C 1082.734375 1339.476562 1059.15625 1303.472656 1053.457031 1296.222656 C 1029.105469 1264.882812 1030.917969 1278.351562 1029.882812 1266.695312 C 1028.066406 1243.644531 1034.804688 1158.429688 1036.097656 1135.378906 C 1037.652344 1108.441406 1034.546875 1088.5 1039.46875 1062.078125 C 1045.425781 1031 1039.984375 1007.949219 1048.535156 977.644531 C 1054.753906 955.628906 1070.816406 929.726562 1074.183594 906.675781 C 1076.777344 887.507812 1074.183594 860.054688 1067.964844 844.773438 C 1059.675781 824.054688 1050.347656 816.542969 1044.910156 810.324219 C 1036.875 816.542969 1027.550781 821.722656 1019.777344 828.195312 C 1009.933594 835.96875 1002.9375 846.84375 992.832031 854.355469 C 984.023438 860.3125 957.339844 867.046875 960.964844 874.816406 Z M 960.964844 874.816406 " fill-opacity="1" fill-rule="nonzero"/><path fill="#393a31" d="M 1098.796875 741.429688 C 1098.28125 745.832031 1108.644531 756.710938 1111.75 761.375 C 1115.898438 767.332031 1121.597656 773.289062 1128.332031 775.878906 C 1141.546875 780.800781 1162.273438 778.726562 1173.933594 771.476562 C 1191.808594 760.597656 1210.980469 748.941406 1225.230469 733.140625 C 1240.773438 716.046875 1246.214844 682.117188 1243.105469 666.058594 C 1240.773438 653.886719 1228.855469 631.871094 1221.34375 624.617188 C 1214.347656 618.144531 1196.988281 607.78125 1192.585938 612.960938 C 1189.734375 616.589844 1194.140625 626.949219 1195.175781 633.425781 C 1196.730469 643.265625 1194.398438 646.894531 1185.847656 650.261719 C 1173.15625 655.441406 1162.273438 670.460938 1160.460938 679.007812 C 1157.609375 691.441406 1164.085938 696.621094 1169.269531 707.5 C 1177.300781 724.335938 1153.203125 725.371094 1142.582031 724.855469 C 1133.253906 724.335938 1125.222656 724.335938 1116.414062 728.480469 C 1111.492188 730.8125 1097.761719 738.839844 1098.796875 741.429688 Z M 1098.796875 741.429688 " fill-opacity="1" fill-rule="nonzero"/><path fill="#393a31" d="M 1189.476562 758.265625 C 1187.144531 780.539062 1212.015625 787.53125 1228.082031 778.46875 C 1243.105469 769.660156 1250.101562 733.140625 1226.265625 730.8125 C 1210.722656 728.996094 1195.953125 746.871094 1189.476562 758.265625 Z M 1189.476562 758.265625 " fill-opacity="1" fill-rule="nonzero"/><path fill="#ffece2" d="M 1181.1875 762.667969 C 1174.96875 776.65625 1188.957031 771.734375 1196.472656 763.964844 C 1203.726562 756.710938 1210.980469 749.71875 1219.011719 744.019531 C 1224.195312 740.394531 1239.738281 732.625 1231.964844 725.890625 C 1222.898438 718.121094 1208.390625 730.292969 1201.914062 736.25 C 1193.363281 744.796875 1185.589844 752.828125 1181.1875 762.667969 Z M 1181.1875 762.667969 " fill-opacity="1" fill-rule="nonzero"/><path fill="#393a31" d="M 1162.015625 651.296875 C 1161.753906 651.296875 1161.753906 651.296875 1161.496094 651.296875 C 1159.941406 651.035156 1158.90625 649.484375 1159.164062 647.929688 C 1159.941406 644.300781 1159.164062 640.9375 1158.644531 637.308594 L 1158.386719 636.53125 C 1157.867188 633.941406 1156.574219 630.574219 1155.277344 627.726562 C 1153.722656 624.101562 1150.613281 619.695312 1146.988281 618.402344 C 1145.433594 617.882812 1144.65625 616.328125 1145.171875 614.777344 C 1145.691406 613.222656 1147.246094 612.445312 1148.800781 612.960938 C 1155.277344 615.035156 1159.164062 622.289062 1160.460938 625.136719 C 1162.015625 628.246094 1163.566406 632.128906 1164.085938 635.238281 L 1164.34375 636.015625 C 1165.121094 639.640625 1165.898438 644.042969 1164.863281 648.445312 C 1164.605469 650.261719 1163.308594 651.296875 1162.015625 651.296875 Z M 1162.015625 651.296875 " fill-opacity="1" fill-rule="nonzero"/><path fill="#ffffff" d="M 1138.957031 633.164062 C 1141.546875 638.085938 1146.210938 643.785156 1150.097656 647.667969 C 1153.203125 645.078125 1150.355469 636.53125 1148.28125 633.941406 C 1145.949219 630.574219 1138.179688 626.171875 1138.957031 633.164062 Z M 1138.957031 633.164062 " fill-opacity="1" fill-rule="nonzero"/><path fill="#393a31" d="M 1150.875 651.296875 C 1149.320312 651.296875 1148.023438 650 1148.023438 648.445312 C 1148.023438 647.152344 1148.023438 645.855469 1148.28125 644.5625 C 1148.542969 640.9375 1148.542969 637.050781 1147.503906 634.460938 C 1146.726562 632.90625 1145.949219 631.871094 1145.171875 631.609375 C 1143.878906 631.09375 1141.546875 632.128906 1139.734375 632.90625 C 1138.4375 633.683594 1136.625 632.90625 1136.105469 631.609375 C 1135.328125 630.316406 1136.105469 628.503906 1137.402344 627.984375 C 1140.25 626.429688 1143.878906 625.136719 1147.246094 626.429688 C 1149.578125 627.207031 1151.390625 629.28125 1152.6875 632.128906 C 1154.5 636.015625 1154.242188 640.675781 1153.980469 644.820312 C 1153.980469 646.117188 1153.980469 647.410156 1153.980469 648.445312 C 1153.722656 650 1152.429688 651.296875 1150.875 651.296875 Z M 1150.875 651.296875 " fill-opacity="1" fill-rule="nonzero"/><path fill="#393a31" d="M 1100.351562 647.152344 C 1099.832031 647.152344 1099.054688 646.894531 1098.539062 646.632812 C 1095.949219 644.5625 1092.839844 640.417969 1089.988281 635.496094 C 1087.398438 631.09375 1084.289062 624.878906 1084.289062 621.769531 C 1084.289062 620.214844 1085.585938 618.921875 1087.140625 618.921875 C 1088.691406 618.921875 1089.988281 620.214844 1089.988281 621.769531 C 1089.988281 622.804688 1091.542969 626.949219 1094.910156 632.648438 C 1097.503906 637.050781 1100.351562 640.675781 1102.425781 642.488281 C 1103.71875 643.527344 1103.71875 645.339844 1102.683594 646.375 C 1101.90625 646.894531 1101.128906 647.152344 1100.351562 647.152344 Z M 1100.351562 647.152344 " fill-opacity="1" fill-rule="nonzero"/><path fill="#393a31" d="M 1107.089844 624.359375 C 1106.050781 624.359375 1105.015625 623.839844 1104.496094 622.804688 C 1103.71875 621.25 1098.019531 607.78125 1102.164062 603.636719 C 1105.015625 600.789062 1109.9375 602.863281 1114.601562 604.933594 C 1115.898438 605.453125 1117.191406 605.96875 1118.230469 606.488281 L 1120.820312 607.265625 C 1124.707031 608.558594 1129.109375 610.113281 1134.808594 610.113281 C 1136.363281 610.113281 1137.660156 611.410156 1137.402344 612.964844 C 1137.402344 614.515625 1136.105469 615.8125 1134.550781 615.554688 C 1128.074219 615.292969 1122.890625 613.738281 1119.007812 612.1875 L 1116.414062 611.410156 C 1115.121094 611.148438 1113.824219 610.371094 1112.269531 609.855469 C 1110.714844 609.078125 1107.347656 607.78125 1105.792969 607.523438 C 1105.535156 609.597656 1107.089844 615.8125 1109.160156 620.214844 C 1109.679688 621.511719 1109.160156 623.324219 1107.867188 623.839844 C 1107.867188 624.101562 1107.347656 624.359375 1107.089844 624.359375 Z M 1107.089844 624.359375 " fill-opacity="1" fill-rule="nonzero"/><path fill="#393a31" d="M 1137.402344 610.371094 C 1135.847656 610.371094 1134.550781 609.078125 1134.550781 607.523438 C 1134.550781 606.746094 1132.738281 603.898438 1131.183594 603.378906 C 1129.628906 602.863281 1129.109375 601.308594 1129.628906 599.753906 C 1130.148438 598.199219 1131.699219 597.679688 1133.253906 598.199219 C 1136.882812 599.496094 1140.511719 604.15625 1140.511719 607.523438 C 1139.992188 609.078125 1138.957031 610.371094 1137.402344 610.371094 Z M 1137.402344 610.371094 " fill-opacity="1" fill-rule="nonzero"/><path fill="#393a31" d="M 1143.101562 636.792969 C 1142.582031 636.792969 1141.804688 636.792969 1141.289062 636.53125 C 1138.179688 636.015625 1137.402344 634.460938 1137.140625 633.425781 C 1136.882812 632.648438 1136.625 631.09375 1138.4375 629.539062 C 1139.992188 627.46875 1143.101562 627.207031 1144.914062 627.46875 C 1148.023438 627.726562 1149.058594 629.28125 1149.578125 630.058594 C 1149.835938 630.835938 1150.355469 632.386719 1149.058594 634.460938 C 1147.503906 636.273438 1145.171875 636.792969 1143.101562 636.792969 Z M 1140.511719 631.351562 L 1142.324219 633.425781 Z M 1140.511719 631.351562 Z M 1140.511719 631.351562 " fill-opacity="1" fill-rule="nonzero"/><path fill="#ffece2" d="M 800.074219 670.460938 C 801.109375 666.316406 878.316406 644.300781 891.273438 648.707031 C 899.042969 651.296875 906.558594 659.324219 914.328125 662.949219 C 923.917969 667.355469 934.539062 669.425781 944.382812 672.535156 C 959.667969 677.195312 974.695312 682.894531 990.757812 684.449219 C 1006.824219 686.003906 1022.625 672.015625 1032.992188 688.332031 C 1008.378906 700.765625 983.246094 718.898438 971.585938 745.054688 C 959.667969 771.734375 947.492188 819.132812 989.207031 824.832031 C 1013.039062 828.195312 1031.175781 813.433594 1044.90625 796.859375 C 1045.167969 801.261719 1048.792969 810.066406 1048.535156 814.46875 C 1017.1875 833.894531 994.128906 869.121094 957.078125 876.113281 C 923.140625 882.589844 888.679688 884.917969 843.339844 883.625 C 873.136719 859.535156 852.410156 789.863281 846.449219 762.667969 C 841.527344 740.652344 828.3125 681.859375 800.074219 670.460938 Z M 800.074219 670.460938 " fill-opacity="1" fill-rule="nonzero"/><path fill="#f59d67" d="M 1113.824219 648.445312 C 1105.273438 652.589844 1106.570312 674.347656 1119.523438 676.417969 C 1132.476562 678.492188 1137.917969 674.089844 1138.4375 668.132812 C 1138.695312 661.914062 1127.296875 641.972656 1113.824219 648.445312 Z M 1113.824219 648.445312 " fill-opacity="1" fill-rule="nonzero"/><path fill="#393a31" d="M 1070.039062 1385.320312 C 1068.742188 1385.320312 1067.707031 1384.542969 1067.449219 1383.246094 C 1066.152344 1379.363281 1050.867188 1344.398438 1043.355469 1327.5625 L 1039.46875 1319.015625 C 1038.949219 1317.71875 1039.46875 1315.90625 1041.023438 1315.386719 C 1042.316406 1314.871094 1044.132812 1315.386719 1044.648438 1316.941406 L 1048.535156 1325.488281 C 1060.453125 1352.683594 1071.851562 1378.328125 1072.890625 1381.953125 C 1073.40625 1383.507812 1072.628906 1385.0625 1071.074219 1385.320312 C 1070.558594 1385.320312 1070.296875 1385.320312 1070.039062 1385.320312 Z M 1070.039062 1385.320312 " fill-opacity="1" fill-rule="nonzero"/><path fill="#393a31" d="M 1072.890625 1349.316406 C 1066.929688 1349.316406 1058.378906 1339.992188 1046.722656 1326.785156 C 1044.132812 1323.933594 1042.058594 1321.34375 1040.503906 1319.792969 C 1039.46875 1318.753906 1039.46875 1316.941406 1040.503906 1315.90625 C 1041.539062 1314.871094 1043.355469 1314.871094 1044.390625 1315.90625 C 1045.945312 1317.460938 1048.277344 1320.050781 1050.867188 1323.160156 C 1055.789062 1328.855469 1069.261719 1343.621094 1072.890625 1343.621094 C 1072.628906 1343.621094 1074.960938 1339.476562 1058.378906 1315.386719 L 1063.042969 1312.28125 C 1077.550781 1333.257812 1081.4375 1343.878906 1076.257812 1348.023438 C 1075.222656 1349.058594 1074.183594 1349.316406 1072.890625 1349.316406 Z M 1072.890625 1349.316406 " fill-opacity="1" fill-rule="nonzero"/><path fill="#393a31" d="M 1060.710938 1392.832031 C 1059.675781 1392.832031 1058.898438 1392.3125 1058.378906 1391.535156 C 1053.71875 1383.765625 1035.582031 1349.058594 1030.660156 1338.441406 C 1029.882812 1337.144531 1030.660156 1335.332031 1031.953125 1334.8125 C 1033.25 1334.035156 1035.0625 1334.8125 1035.582031 1336.109375 C 1040.503906 1346.726562 1058.378906 1381.175781 1063.042969 1388.6875 C 1063.820312 1389.980469 1063.304688 1391.796875 1062.007812 1392.570312 C 1061.488281 1392.832031 1060.972656 1392.832031 1060.710938 1392.832031 Z M 1060.710938 1392.832031 " fill-opacity="1" fill-rule="nonzero"/><path fill="#393a31" d="M 1082.734375 674.089844 C 1082.214844 674.089844 1081.4375 673.828125 1080.921875 673.3125 C 1069.261719 663.46875 1063.042969 656.21875 1058.121094 640.160156 C 1057.601562 638.605469 1058.378906 637.050781 1059.933594 636.792969 C 1061.488281 636.273438 1063.042969 637.050781 1063.304688 638.605469 C 1067.707031 653.367188 1073.148438 659.582031 1084.289062 668.90625 C 1085.585938 669.945312 1085.585938 671.757812 1084.546875 672.792969 C 1084.289062 673.828125 1083.511719 674.089844 1082.734375 674.089844 Z M 1082.734375 674.089844 " fill-opacity="1" fill-rule="nonzero"/><path fill="#393a31" d="M 962 142.605469 C 960.445312 142.605469 959.152344 141.3125 959.152344 139.757812 L 960.1875 104.535156 C 960.1875 102.980469 961.484375 101.683594 963.039062 101.941406 C 964.59375 101.941406 965.886719 103.238281 965.628906 104.792969 L 964.59375 140.015625 C 964.59375 141.570312 963.554688 142.605469 962 142.605469 Z M 962 142.605469 " fill-opacity="1" fill-rule="nonzero"/><path fill="#393a31" d="M 973.140625 130.953125 C 972.882812 130.953125 972.882812 130.953125 973.140625 130.953125 C 971.328125 130.691406 970.292969 129.398438 970.292969 127.84375 L 972.882812 95.726562 C 972.882812 94.171875 974.4375 93.136719 975.992188 93.136719 C 977.546875 93.136719 978.582031 94.691406 978.582031 96.246094 L 975.992188 128.363281 C 975.734375 129.914062 974.4375 130.953125 973.140625 130.953125 Z M 973.140625 130.953125 " fill-opacity="1" fill-rule="nonzero"/><path fill="#393a31" d="M 984.28125 137.167969 C 984.28125 137.167969 984.023438 137.167969 984.023438 137.167969 C 982.46875 136.910156 981.433594 135.613281 981.433594 134.058594 L 984.28125 104.535156 C 984.542969 102.980469 985.835938 101.941406 987.390625 101.941406 C 988.945312 102.203125 989.984375 103.496094 989.984375 105.050781 L 987.132812 134.578125 C 987.132812 136.132812 985.835938 137.167969 984.28125 137.167969 Z M 984.28125 137.167969 " fill-opacity="1" fill-rule="nonzero"/><path fill="#393a31" d="M 949.824219 648.445312 C 948.789062 648.445312 947.492188 647.667969 947.234375 646.632812 C 946.714844 645.078125 947.492188 643.527344 949.046875 643.007812 C 958.375 639.898438 965.628906 630.835938 966.40625 620.734375 C 966.40625 619.179688 967.960938 618.144531 969.253906 618.144531 C 970.808594 618.144531 971.847656 619.695312 971.847656 620.992188 C 971.070312 633.164062 962.261719 644.300781 950.859375 648.1875 C 950.34375 648.445312 950.082031 648.445312 949.824219 648.445312 Z M 949.824219 648.445312 " fill-opacity="1" fill-rule="nonzero"/><path fill="#393a31" d="M 598.765625 890.359375 C 598.507812 890.359375 598.507812 890.359375 598.25 890.359375 C 596.695312 890.101562 595.65625 888.804688 595.917969 887.25 L 603.171875 835.449219 C 603.429688 833.894531 604.726562 832.859375 606.28125 833.117188 C 607.835938 833.378906 608.871094 834.671875 608.613281 836.226562 L 601.355469 888.027344 C 601.097656 889.324219 600.0625 890.359375 598.765625 890.359375 Z M 598.765625 890.359375 " fill-opacity="1" fill-rule="nonzero"/><path fill="#393a31" d="M 758.101562 890.875 C 757.84375 890.875 757.585938 890.875 757.066406 890.617188 L 716.132812 876.113281 C 714.578125 875.59375 713.800781 874.042969 714.316406 872.488281 C 714.835938 870.933594 716.390625 870.15625 717.945312 870.675781 L 758.878906 885.179688 C 760.433594 885.695312 761.210938 887.25 760.695312 888.804688 C 760.175781 890.101562 759.140625 890.875 758.101562 890.875 Z M 758.101562 890.875 " fill-opacity="1" fill-rule="nonzero"/></svg>