<svg xmlns="http://www.w3.org/2000/svg" xmlns:xlink="http://www.w3.org/1999/xlink" width="1920" zoomAndPan="magnify" viewBox="0 0 1440 809.999993" height="1080" preserveAspectRatio="xMidYMid meet" version="1.0"><defs><clipPath id="5e9825ddc4"><path d="M 777 144 L 1238.652344 144 L 1238.652344 266 L 777 266 Z M 777 144 " clip-rule="nonzero"/></clipPath></defs><path fill="#f5ac7f" d="M 203.894531 767.175781 C 201.402344 777.363281 201.628906 788.679688 210.683594 792.980469 C 217.019531 795.921875 249.15625 797.507812 255.496094 797.054688 C 268.621094 795.921875 257.757812 783.246094 253.683594 773.511719 C 249.15625 762.421875 269.753906 727.566406 245.535156 728.019531 C 236.9375 728.019531 207.515625 753.59375 203.894531 767.175781 Z M 203.894531 767.175781 " fill-opacity="1" fill-rule="nonzero"/><path fill="#f5ac7f" d="M 694.566406 89.734375 C 684.15625 111.464844 699.320312 129.34375 694.113281 154.242188 C 688.683594 180.496094 671.933594 194.304688 701.128906 235.726562 C 714.03125 254.285156 741.867188 263.566406 761.785156 248.398438 C 774.6875 238.441406 780.117188 218.296875 777.628906 202.226562 C 775.136719 186.835938 759.972656 184.570312 754.769531 170.992188 C 745.261719 146.09375 769.707031 162.84375 778.308594 156.050781 C 783.285156 152.203125 782.832031 141.792969 783.058594 137.265625 C 783.285156 133.417969 785.097656 125.269531 787.132812 123.007812 C 789.398438 120.96875 797.542969 120.289062 797.542969 115.761719 C 797.542969 109.425781 784.871094 99.015625 788.265625 89.960938 C 793.019531 77.285156 791.886719 71.402344 789.171875 61.214844 C 785.777344 48.765625 777.628906 41.75 766.765625 46.503906 C 750.015625 53.746094 748.433594 80.90625 726.929688 86.339844 C 715.160156 89.507812 701.582031 73.4375 694.566406 89.734375 Z M 694.566406 89.734375 " fill-opacity="1" fill-rule="nonzero"/><g clip-path="url(#5e9825ddc4)"><path fill="#f5ac7f" d="M 777.628906 189.097656 C 799.582031 184.34375 817.914062 174.613281 840.546875 173.253906 C 867.027344 171.671875 891.921875 167.371094 920.664062 159.898438 C 953.257812 151.300781 976.792969 150.394531 1011.648438 147.453125 C 1049.898438 144.28125 1089.730469 146.546875 1128.660156 145.1875 C 1147.671875 144.507812 1166.230469 144.054688 1185.238281 145.1875 C 1197.460938 145.867188 1230.277344 140.433594 1238.652344 150.621094 C 1229.375 159.222656 1206.742188 162.390625 1194.972656 165.558594 C 1181.167969 169.179688 1167.585938 171.894531 1153.328125 171.894531 C 1139.070312 171.894531 1126.394531 174.386719 1112.363281 176.421875 C 1089.050781 179.816406 1068.003906 184.570312 1044.691406 187.0625 C 1021.152344 189.324219 1008.480469 189.324219 985.394531 195.4375 C 966.835938 200.414062 941.488281 211.507812 922.929688 217.164062 C 903.464844 222.824219 882.644531 227.804688 865.894531 235.5 C 849.375 243.195312 821.082031 267.867188 812.480469 265.828125 C 797.996094 261.980469 779.210938 204.488281 777.628906 189.097656 Z M 777.628906 189.097656 " fill-opacity="1" fill-rule="nonzero"/></g><path fill="#f5ac7f" d="M 674.195312 191.363281 C 666.277344 194.53125 652.015625 190.683594 642.964844 190.230469 C 630.96875 189.777344 609.015625 189.324219 596.566406 188.644531 C 570.3125 187.289062 553.339844 189.777344 526.859375 188.417969 C 492.230469 186.835938 465.070312 178.914062 425.691406 177.554688 C 384.5 176.195312 343.535156 182.082031 302.570312 177.101562 C 285.371094 175.066406 267.941406 170.3125 250.0625 170.539062 C 240.558594 170.539062 206.835938 168.046875 206.15625 177.78125 C 206.15625 177.78125 243.5 201.320312 281.523438 204.941406 C 305.738281 207.207031 301.4375 200.414062 321.128906 203.8125 C 342.855469 207.433594 370.015625 219.429688 391.742188 220.558594 C 410.300781 221.691406 445.382812 226.21875 465.976562 229.613281 C 484.308594 232.554688 508.753906 240.476562 521.199219 242.515625 C 544.058594 246.136719 555.375 247.269531 576.652344 248.171875 C 606.527344 249.53125 634.363281 260.621094 645.679688 278.503906 C 649.074219 283.9375 655.636719 288.011719 663.332031 287.105469 C 675.554688 285.746094 673.972656 263.113281 675.554688 253.832031 C 678.949219 235.726562 683.703125 208.5625 674.195312 191.363281 Z M 674.195312 191.363281 " fill-opacity="1" fill-rule="nonzero"/><path fill="#f5ac7f" d="M 658.355469 336.445312 C 659.484375 373.792969 638.210938 406.613281 614.222656 431.964844 C 626.214844 446.449219 645 453.917969 662.878906 459.804688 C 682.796875 466.59375 701.808594 475.875 722.628906 478.136719 C 736.664062 479.722656 777.175781 491.71875 786.226562 481.53125 C 791.660156 475.648438 791.660156 457.992188 792.792969 450.523438 C 794.828125 438.527344 795.507812 426.53125 797.316406 414.535156 C 800.714844 391.449219 804.109375 367.910156 802.75 344.367188 C 788.492188 342.785156 773.101562 348.441406 758.617188 348.667969 C 741.414062 349.121094 723.988281 346.632812 706.789062 344.820312 C 694.339844 343.464844 666.503906 328.75 658.355469 336.445312 Z M 658.355469 336.445312 " fill-opacity="1" fill-rule="nonzero"/><path fill="#ffece2" d="M 668.3125 188.871094 C 675.328125 187.964844 678.269531 186.382812 684.382812 185.25 C 686.871094 205.847656 694.339844 232.101562 714.03125 245.230469 C 736.664062 260.167969 768.347656 252.472656 774.234375 225.085938 C 777.175781 210.828125 772.875 200.640625 769.933594 188.191406 C 774.6875 187.964844 779.4375 188.191406 783.964844 187.515625 C 783.511719 203.132812 791.886719 220.105469 798.449219 233.914062 C 803.429688 244.550781 816.101562 255.191406 819.273438 265.375 C 822.214844 274.882812 815.425781 290.046875 813.386719 299.328125 C 810.445312 312.90625 809.992188 326.941406 806.824219 340.296875 C 803.65625 353.195312 796.414062 354.554688 782.378906 357.496094 C 768.121094 360.4375 751.148438 359.761719 736.664062 357.949219 C 709.957031 354.78125 683.25 349.574219 657.449219 341.652344 C 656.996094 326.488281 656.542969 310.871094 657.449219 295.707031 C 658.128906 284.613281 662.429688 280.3125 666.277344 269.902344 C 672.839844 251.34375 679.855469 209.015625 668.3125 188.871094 Z M 668.3125 188.871094 " fill-opacity="1" fill-rule="nonzero"/><path fill="#f5ac7f" d="M 1006.667969 795.015625 C 1014.816406 803.164062 1054.199219 799.089844 1063.25 799.316406 C 1083.167969 800.222656 1159.4375 812.21875 1159.4375 793.882812 C 1159.4375 785.285156 1123 785.960938 1106.929688 780.984375 C 1094.710938 777.136719 1080 770.796875 1071.398438 765.367188 C 1056.914062 756.3125 1046.050781 749.519531 1040.164062 726.886719 C 1037.675781 716.929688 1016.628906 733.226562 1007.800781 739.335938 C 998.972656 744.996094 997.84375 785.960938 1006.667969 795.015625 Z M 1006.667969 795.015625 " fill-opacity="1" fill-rule="nonzero"/><path fill="#bcb1f5" d="M 217.246094 744.089844 C 217.246094 739.109375 243.726562 716.929688 262.058594 701.761719 C 274.507812 691.351562 328.371094 651.742188 346.023438 641.328125 C 379.070312 621.636719 414.601562 604.4375 442.890625 584.519531 C 469.597656 565.957031 501.738281 532.6875 519.164062 516.390625 C 538.402344 498.054688 559.902344 477.683594 573.933594 462.519531 C 584.347656 451.429688 601.09375 437.847656 615.578125 431.738281 C 626.894531 426.984375 648.394531 441.015625 661.070312 445.996094 C 679.402344 453.464844 698.414062 456.632812 717.425781 461.160156 C 754.316406 470.214844 787.132812 476.554688 825.382812 474.742188 C 875.402344 472.253906 924.285156 480.175781 973.171875 488.097656 C 992.636719 491.265625 1004.40625 505.296875 1005.765625 524.3125 C 1007.800781 553.734375 1013.234375 583.160156 1018.664062 612.132812 C 1024.324219 642.234375 1026.585938 670.300781 1033.828125 699.046875 C 1037.222656 712.402344 1044.238281 728.019531 1042.65625 732.320312 C 1040.84375 737.75 1037.675781 739.5625 1025.453125 746.125 C 1014.136719 752.238281 1004.40625 758.574219 999.425781 754.953125 C 996.9375 753.144531 994.222656 740.695312 987.65625 723.71875 C 980.640625 705.609375 961.855469 640.878906 954.160156 611.90625 C 950.539062 598.097656 942.621094 558.714844 926.550781 559.394531 C 899.390625 560.753906 872.457031 571.164062 845.300781 573.878906 C 795.734375 578.632812 748.65625 581.574219 701.128906 566.183594 C 652.921875 550.566406 607.65625 572.75 568.050781 596.0625 C 535.460938 615.074219 498.34375 633.632812 468.015625 651.742188 C 441.082031 667.585938 399.4375 688.863281 369.109375 701.308594 C 339.007812 713.082031 260.246094 753.144531 254.589844 759.707031 C 247.800781 754.273438 217.246094 747.9375 217.246094 744.089844 Z M 217.246094 744.089844 " fill-opacity="1" fill-rule="nonzero"/><path fill="#393a31" d="M 699.773438 125.269531 C 693.433594 132.285156 671.707031 121.648438 662.203125 110.785156 C 652.695312 99.691406 652.46875 77.738281 658.128906 63.929688 C 671.253906 31.113281 704.523438 0.78125 743.679688 9.835938 C 768.347656 15.71875 787.359375 33.148438 784.191406 48.085938 C 782.605469 55.78125 757.257812 58.046875 750.695312 68.910156 C 744.132812 79.773438 740.738281 90.414062 725.347656 89.054688 C 711.765625 87.921875 697.960938 78.417969 695.472656 98.109375 C 694.339844 107.390625 704.976562 119.613281 699.773438 125.269531 Z M 699.773438 125.269531 " fill-opacity="1" fill-rule="nonzero"/><path fill="#393a31" d="M 658.355469 75.476562 C 642.738281 71.851562 625.761719 51.480469 639.570312 37.449219 C 652.015625 25 680.082031 25.226562 674.421875 48.3125 C 672.160156 57.140625 666.726562 68.003906 658.355469 75.476562 Z M 658.355469 75.476562 " fill-opacity="1" fill-rule="nonzero"/><path fill="#ffece2" d="M 652.242188 67.777344 C 646.585938 73.4375 653.148438 83.847656 660.617188 79.546875 C 666.503906 76.152344 669.898438 63.703125 672.160156 58.046875 C 674.421875 51.933594 679.628906 41.296875 678.042969 34.507812 C 677.59375 32.015625 674.648438 28.394531 671.707031 29.753906 C 668.539062 31.113281 666.503906 39.484375 665.597656 42.429688 C 663.558594 48.3125 661.976562 55.554688 658.582031 60.761719 C 656.769531 63.027344 654.28125 64.835938 652.242188 67.777344 Z M 652.242188 67.777344 " fill-opacity="1" fill-rule="nonzero"/><path fill="#ffffff" d="M 773.101562 93.128906 C 770.613281 93.128906 758.390625 94.488281 763.820312 98.335938 C 766.992188 100.597656 774.460938 101.277344 775.136719 96.523438 C 775.363281 94.714844 775.136719 94.035156 773.101562 93.128906 Z M 773.101562 93.128906 " fill-opacity="1" fill-rule="nonzero"/><path fill="#393a31" d="M 761.558594 97.882812 C 760.652344 97.882812 759.972656 97.429688 759.523438 96.75 C 758.84375 95.617188 759.296875 94.035156 760.425781 93.355469 C 766.3125 89.734375 770.839844 89.054688 776.722656 90.414062 C 778.082031 90.640625 778.757812 91.996094 778.53125 93.355469 C 778.308594 94.714844 776.949219 95.394531 775.589844 95.167969 C 771.0625 94.035156 767.894531 94.488281 763.144531 97.429688 C 762.464844 97.882812 762.011719 97.882812 761.558594 97.882812 Z M 761.558594 97.882812 " fill-opacity="1" fill-rule="nonzero"/><path fill="#393a31" d="M 756.351562 91.320312 C 755.675781 91.320312 754.996094 91.09375 754.542969 90.414062 C 753.636719 89.28125 753.863281 87.921875 754.769531 87.019531 C 760.425781 82.265625 771.742188 79.546875 782.15625 83.621094 C 783.285156 84.074219 783.964844 85.433594 783.511719 86.792969 C 783.058594 88.148438 781.703125 88.601562 780.34375 88.148438 C 771.96875 84.753906 762.464844 87.019531 757.9375 90.640625 C 757.257812 91.320312 756.804688 91.320312 756.351562 91.320312 Z M 756.351562 91.320312 " fill-opacity="1" fill-rule="nonzero"/><path fill="#393a31" d="M 780.34375 136.8125 C 777.175781 136.8125 774.007812 135.90625 770.839844 134.097656 C 769.707031 133.417969 769.253906 131.832031 769.933594 130.703125 C 770.613281 129.570312 772.195312 129.117188 773.328125 129.796875 C 776.269531 131.382812 778.757812 132.058594 781.703125 131.832031 C 783.058594 131.609375 784.191406 132.738281 784.417969 134.097656 C 784.644531 135.457031 783.511719 136.585938 782.15625 136.8125 C 781.476562 136.8125 781.023438 136.8125 780.34375 136.8125 Z M 780.34375 136.8125 " fill-opacity="1" fill-rule="nonzero"/><path fill="#393a31" d="M 774.007812 102.183594 L 771.515625 101.503906 C 769.707031 100.824219 768.800781 98.789062 768.800781 97.203125 C 768.800781 95.167969 769.253906 93.808594 770.160156 92.902344 L 771.515625 91.546875 L 773.554688 91.769531 C 774.910156 91.996094 776.042969 92.902344 776.722656 94.035156 C 777.628906 96.070312 776.949219 99.242188 775.589844 100.597656 Z M 770.613281 96.296875 C 770.613281 96.296875 770.613281 96.523438 770.839844 96.75 C 771.0625 97.429688 771.742188 97.882812 772.421875 97.882812 L 771.0625 95.84375 C 770.839844 96.070312 770.613281 96.296875 770.613281 96.296875 Z M 775.136719 97.203125 Z M 774.007812 96.296875 L 774.910156 96.976562 C 775.136719 96.75 775.136719 96.75 775.136719 96.523438 C 774.910156 95.617188 774.007812 95.394531 773.78125 95.167969 L 773.554688 95.617188 Z M 774.007812 96.296875 " fill-opacity="1" fill-rule="nonzero"/><path fill="#393a31" d="M 716.292969 113.5 C 715.839844 113.5 715.386719 113.273438 714.9375 113.046875 C 712.445312 111.464844 704.75 106.257812 706.5625 101.050781 C 707.46875 98.335938 710.636719 96.976562 713.351562 96.976562 C 714.710938 96.976562 715.613281 98.335938 715.613281 99.46875 C 715.613281 100.824219 714.484375 101.730469 713.125 101.730469 C 712.445312 101.730469 711.539062 102.183594 711.316406 102.410156 C 711.316406 102.410156 711.089844 104.445312 717.652344 108.972656 C 718.78125 109.652344 719.007812 111.238281 718.332031 112.367188 C 717.652344 113.046875 716.972656 113.5 716.292969 113.5 Z M 716.292969 113.5 " fill-opacity="1" fill-rule="nonzero"/><path fill="#393a31" d="M 269.074219 194.304688 C 258.4375 193.398438 246.667969 187.0625 244.859375 181.402344 C 244.179688 179.59375 244.632812 177.78125 246.214844 176.421875 C 248.929688 174.160156 252.777344 175.066406 257.757812 176.421875 C 262.964844 177.78125 269.527344 179.59375 277.222656 178.234375 C 278.578125 178.007812 279.710938 178.914062 279.9375 180.269531 C 280.164062 181.628906 279.257812 182.761719 277.902344 182.988281 C 269.074219 184.34375 261.832031 182.308594 256.398438 180.949219 C 253.457031 180.269531 250.0625 179.367188 249.382812 180.042969 C 249.835938 181.855469 259.117188 188.417969 269.300781 189.324219 C 270.660156 189.550781 271.5625 190.683594 271.5625 192.039062 C 271.5625 193.398438 270.433594 194.304688 269.074219 194.304688 Z M 269.074219 194.304688 " fill-opacity="1" fill-rule="nonzero"/><path fill="#393a31" d="M 1172.566406 168.5 C 1172.113281 168.5 1171.886719 168.5 1171.660156 168.5 C 1170.300781 168.5 1169.398438 167.371094 1169.398438 166.011719 C 1169.398438 164.652344 1170.753906 163.75 1171.886719 163.75 C 1180.035156 164.425781 1192.484375 158.996094 1197.007812 156.050781 C 1197.007812 156.050781 1197.007812 156.050781 1196.78125 156.050781 C 1193.386719 156.050781 1187.503906 156.730469 1183.203125 157.410156 C 1176.867188 158.316406 1170.300781 159.222656 1166.457031 158.769531 C 1165.097656 158.542969 1164.191406 157.410156 1164.191406 156.050781 C 1164.417969 154.695312 1165.550781 153.5625 1166.90625 153.789062 C 1170.304688 154.015625 1176.640625 153.335938 1182.523438 152.429688 C 1193.386719 151.074219 1199.5 150.394531 1202.214844 152.429688 C 1203.347656 153.335938 1203.800781 154.921875 1203.347656 156.277344 C 1201.308594 161.257812 1182.976562 168.5 1172.566406 168.5 Z M 1172.566406 168.5 " fill-opacity="1" fill-rule="nonzero"/><path fill="#f59d67" d="M 744.8125 107.390625 C 741.640625 111.238281 745.035156 124.816406 753.863281 129.117188 C 761.332031 132.738281 769.253906 123.007812 767.441406 115.761719 C 765.632812 107.839844 748.65625 102.863281 744.8125 107.390625 Z M 744.8125 107.390625 " fill-opacity="1" fill-rule="nonzero"/><path fill="#393a31" d="M 758.164062 157.410156 C 757.9375 157.410156 757.484375 157.410156 757.257812 157.183594 L 736.890625 148.355469 C 735.757812 147.902344 735.078125 146.320312 735.53125 145.1875 C 735.984375 144.054688 737.566406 143.378906 738.699219 143.828125 L 759.070312 152.65625 C 760.199219 153.109375 760.878906 154.695312 760.425781 155.824219 C 759.972656 156.957031 759.070312 157.410156 758.164062 157.410156 Z M 758.164062 157.410156 " fill-opacity="1" fill-rule="nonzero"/><path fill="#393a31" d="M 737.792969 488.097656 C 736.664062 488.097656 735.757812 487.417969 735.53125 486.285156 C 735.304688 484.925781 735.984375 483.570312 737.34375 483.34375 C 760.425781 477.457031 779.664062 474.96875 804.335938 474.96875 C 805.691406 474.96875 806.824219 476.101562 806.824219 477.457031 C 806.824219 478.816406 805.691406 479.949219 804.335938 479.949219 C 780.34375 479.949219 761.332031 482.210938 738.699219 488.097656 C 738.246094 487.871094 738.019531 488.097656 737.792969 488.097656 Z M 737.792969 488.097656 " fill-opacity="1" fill-rule="nonzero"/><path fill="#393a31" d="M 645.226562 242.515625 C 645 242.515625 645 242.515625 644.773438 242.515625 L 621.691406 237.761719 C 620.332031 237.535156 619.425781 236.175781 619.878906 234.820312 C 620.105469 233.460938 621.464844 232.554688 622.820312 233.007812 L 645.90625 237.761719 C 647.265625 237.988281 648.167969 239.347656 647.71875 240.703125 C 647.265625 241.835938 646.359375 242.515625 645.226562 242.515625 Z M 645.226562 242.515625 " fill-opacity="1" fill-rule="nonzero"/><path fill="#393a31" d="M 817.6875 232.101562 C 816.78125 232.101562 815.875 231.652344 815.425781 230.746094 C 814.746094 229.613281 815.425781 228.027344 816.554688 227.578125 L 839.867188 216.03125 C 841 215.355469 842.582031 216.03125 843.035156 217.164062 C 843.714844 218.296875 843.035156 219.882812 841.902344 220.332031 L 818.59375 231.878906 C 818.367188 232.101562 818.140625 232.101562 817.6875 232.101562 Z M 817.6875 232.101562 " fill-opacity="1" fill-rule="nonzero"/><path fill="#393a31" d="M 1212.171875 157.183594 C 1211.042969 157.183594 1209.910156 156.277344 1209.683594 155.148438 C 1209.457031 153.789062 1210.363281 152.65625 1211.71875 152.429688 L 1226.882812 150.394531 C 1228.242188 150.167969 1229.375 151.074219 1229.601562 152.429688 C 1229.828125 153.789062 1228.921875 154.921875 1227.5625 155.148438 L 1212.398438 157.183594 C 1212.398438 157.183594 1212.171875 157.183594 1212.171875 157.183594 Z M 1212.171875 157.183594 " fill-opacity="1" fill-rule="nonzero"/><path fill="#393a31" d="M 236.03125 181.402344 C 236.03125 181.402344 235.804688 181.402344 235.804688 181.402344 L 212.039062 178.234375 C 210.683594 178.007812 209.777344 176.875 210.003906 175.519531 C 210.230469 174.160156 211.359375 173.253906 212.71875 173.480469 L 236.257812 176.648438 C 237.613281 176.875 238.519531 178.007812 238.292969 179.367188 C 238.066406 180.722656 237.164062 181.402344 236.03125 181.402344 Z M 236.03125 181.402344 " fill-opacity="1" fill-rule="nonzero"/><path fill="#393a31" d="M 239.652344 191.136719 C 239.425781 191.136719 239.425781 191.136719 239.199219 191.136719 L 227.429688 188.871094 C 226.074219 188.644531 225.167969 187.289062 225.394531 186.15625 C 225.621094 184.796875 226.976562 183.890625 228.109375 184.117188 L 239.878906 186.382812 C 241.234375 186.609375 242.140625 187.964844 241.914062 189.097656 C 241.914062 190.230469 240.785156 191.136719 239.652344 191.136719 Z M 239.652344 191.136719 " fill-opacity="1" fill-rule="nonzero"/></svg>