<svg xmlns="http://www.w3.org/2000/svg" xmlns:xlink="http://www.w3.org/1999/xlink" width="1920" zoomAndPan="magnify" viewBox="0 0 1440 809.999993" height="1080" preserveAspectRatio="xMidYMid meet" version="1.0"><defs><clipPath id="837cd44c85"><path d="M 670 164 L 869 164 L 869 809.699219 L 670 809.699219 Z M 670 164 " clip-rule="nonzero"/></clipPath><clipPath id="b87a01c489"><path d="M 248 16.199219 L 472 16.199219 L 472 190 L 248 190 Z M 248 16.199219 " clip-rule="nonzero"/></clipPath></defs><g clip-path="url(#837cd44c85)"><path fill="#f9ab71" d="M 868.835938 178.554688 C 868.835938 202.238281 863.3125 225.617188 852.714844 246.78125 L 844.03125 264.167969 L 806.820312 437.746094 L 813.605469 492.148438 C 816.523438 515.238281 818.292969 538.449219 818.945312 561.730469 C 819.128906 568.488281 819.222656 575.28125 819.222656 582.074219 L 819.222656 809.699219 L 685.699219 809.699219 C 677.242188 809.699219 670.386719 802.847656 670.386719 794.394531 C 670.386719 788.558594 673.683594 783.257812 678.855469 780.652344 L 720 760.105469 L 744.804688 735.308594 L 715.882812 561.730469 L 695.195312 437.746094 L 720 164.980469 L 868.835938 178.554688 " fill-opacity="1" fill-rule="nonzero"/></g><path fill="#ae2590" d="M 868.835938 178.554688 C 868.835938 202.238281 863.3125 225.617188 852.714844 246.78125 L 844.03125 264.167969 L 806.820312 437.746094 L 813.605469 492.148438 C 816.523438 515.238281 818.292969 538.449219 818.945312 561.730469 L 715.882812 561.730469 L 695.195312 437.746094 L 720 164.980469 L 868.835938 178.554688 " fill-opacity="1" fill-rule="nonzero"/><g clip-path="url(#b87a01c489)"><path fill="#5b291d" d="M 471.941406 16.199219 L 471.941406 65.792969 C 471.941406 106.875 438.617188 140.183594 397.523438 140.183594 L 323.101562 140.183594 L 273.492188 189.777344 L 248.683594 189.777344 L 248.683594 115.386719 C 248.683594 74.304688 282.007812 40.996094 323.101562 40.996094 L 447.132812 40.996094 L 471.941406 16.199219 " fill-opacity="1" fill-rule="nonzero"/></g><path fill="#f9ab71" d="M 1439.375 115.386719 L 1439.375 248.863281 C 1439.375 253.078125 1437.667969 256.917969 1434.882812 259.675781 C 1432.121094 262.460938 1428.28125 264.167969 1424.066406 264.167969 C 1418.226562 264.167969 1412.921875 260.875 1410.316406 255.707031 L 1389.761719 214.574219 L 1364.957031 189.777344 L 1067.285156 239.371094 L 794.417969 214.574219 L 744.804688 225.921875 L 696.78125 236.925781 C 682.234375 240.242188 667.382812 241.914062 652.496094 241.914062 C 641.898438 241.914062 631.289062 241.078125 620.777344 239.371094 L 559.597656 259.761719 C 550.816406 262.679688 541.644531 264.167969 532.40625 264.167969 C 509.585938 264.167969 487.6875 255.113281 471.539062 238.972656 L 447.132812 214.574219 L 372.714844 215.6875 L 367.75 251.527344 L 329.765625 251.527344 L 317.097656 264.167969 L 291.78125 244.917969 L 269.859375 240.390625 C 251.253906 236.671875 240.039062 224.988281 232.441406 211.355469 C 231.59375 209.863281 230.820312 208.339844 230.082031 206.824219 C 216.128906 178.398438 223.539062 127.980469 257.210938 110.300781 C 281.207031 97.6875 313.363281 103.230469 350.476562 118.765625 C 357.707031 121.78125 365.121094 125.148438 372.714844 128.875 L 447.132812 115.386719 L 546.359375 115.386719 L 620.777344 130.269531 L 670.386719 140.183594 L 700.125 110.460938 C 713.144531 97.445312 728.332031 86.996094 744.804688 79.5 C 746.394531 78.75 748.003906 78.070312 749.613281 77.382812 C 767.941406 69.824219 787.78125 65.792969 807.996094 65.792969 C 831.6875 65.792969 855.078125 71.316406 876.25 81.910156 L 893.640625 90.589844 L 1067.285156 127.785156 L 1121.703125 121.003906 C 1151.539062 117.253906 1181.578125 115.386719 1211.664062 115.386719 L 1439.375 115.386719 " fill-opacity="1" fill-rule="nonzero"/><path fill="#693224" d="M 350.476562 118.765625 C 317 173.226562 255.082031 202.214844 232.441406 211.355469 C 231.59375 209.863281 230.820312 208.339844 230.082031 206.824219 C 216.128906 178.398438 223.539062 127.980469 257.210938 110.300781 C 281.207031 97.6875 313.363281 103.230469 350.476562 118.765625 " fill-opacity="1" fill-rule="nonzero"/><path fill="#fab683" d="M 546.359375 115.386719 C 546.359375 166.496094 522.910156 194.210938 492.15625 214.574219 L 347.910156 214.574219 L 124.65625 143.285156 L 75.042969 140.183594 L 0.625 115.386719 L 0.625 40.996094 L 75.042969 40.996094 L 124.65625 68.894531 L 293.113281 115.386719 L 546.359375 115.386719 " fill-opacity="1" fill-rule="nonzero"/><path fill="#b964b9" d="M 620.777344 130.269531 L 620.777344 239.371094 L 559.597656 259.761719 C 550.816406 262.679688 541.644531 264.167969 532.40625 264.167969 C 509.585938 264.167969 487.6875 255.113281 471.539062 238.972656 L 463.605469 231.042969 C 507.164062 208.472656 546.359375 181.496094 546.359375 115.386719 L 620.777344 130.269531 " fill-opacity="1" fill-rule="nonzero"/><path fill="#bb2a9b" d="M 1216.121094 115.386719 L 1216.121094 214.574219 L 1067.285156 239.371094 L 794.417969 214.574219 L 744.804688 225.921875 L 744.804688 79.5 C 746.394531 78.75 748.003906 78.070312 749.613281 77.382812 C 767.941406 69.824219 787.78125 65.792969 807.996094 65.792969 C 831.6875 65.792969 855.078125 71.316406 876.25 81.910156 L 893.640625 90.589844 L 1067.285156 127.785156 L 1121.703125 121.003906 C 1151.539062 117.253906 1181.578125 115.386719 1211.664062 115.386719 L 1216.121094 115.386719 " fill-opacity="1" fill-rule="nonzero"/></svg>